<svg xmlns="http://www.w3.org/2000/svg" viewBox="0 0 100.8 89.71"><defs><style>.cls-1{fill:#da0106;}.cls-2{fill:#262723;}</style></defs><title>butter-flowers</title><g id="Layer_2" data-name="Layer 2"><g id="Layer_1-2" data-name="Layer 1"><path class="cls-1" d="M65.91,5.07C63.39,8.21,61.82,12.65,63,14s3.59-.17,6.11-4.64,6.05-7.87,4-8.16S67.92,2.57,65.91,5.07Z"/><path class="cls-2" d="M62.22,14.67c-1.82-2.07.51-7.28,2.89-10.25C67.34,1.64,70.85-.19,73.28.17a1.62,1.62,0,0,1,1.36.94c.48,1.13-.41,2.4-2,4.71-.83,1.2-1.78,2.56-2.62,4-1.37,2.44-3.49,5.39-5.72,5.62a2.35,2.35,0,0,1-2.06-.81Zm4.5-9c-2.61,3.25-3.5,7-2.95,7.6a.28.28,0,0,0,.29.11c.62-.06,2.17-1.09,4.14-4.58.89-1.56,1.86-3,2.73-4.2a29.12,29.12,0,0,0,1.6-2.45C71,2.26,68.44,3.57,66.72,5.71Z"/><path class="cls-1" d="M96.9,15.49c-.38-3.51-2.77-3.81-3.53-3.36s-3.74,3.81-2,5.58c2.07,2.05,3.26,2.22,4.52,1A3.25,3.25,0,0,0,96.9,15.49Z"/><path class="cls-2" d="M90.68,18.44a3,3,0,0,1-.83-2.56,7.86,7.86,0,0,1,3-4.64,2.88,2.88,0,0,1,2.69,0c.77.38,2.1,1.42,2.39,4.09l0,.12a4.24,4.24,0,0,1-1.29,3.92c-1.79,1.76-3.52,1.1-5-.07A12.38,12.38,0,0,1,90.68,18.44Zm4-5.26a1.18,1.18,0,0,0-.8-.17,6.07,6.07,0,0,0-2,3.15.91.91,0,0,0,.24.82c2,2,2.5,1.52,3.07,1a2.2,2.2,0,0,0,.68-2.22V15.6a3.38,3.38,0,0,0-1-2.29Z"/><path class="cls-2" d="M31.9,87.76c-.75.8-.54-.43-1.45-.41s-2,2.53-2.94,1.81,3.84-8.31,6.42-11.9,10-13.49,16.92-19.7S65.33,47.3,68.82,43c7.41-9.24,6.59-11.09,7-11.8s2.25.91,2.25.91S76.82,36.41,72,42.48,50.7,59.53,45.8,65.42C35.15,78.24,32.86,86.75,31.9,87.76Z"/><path class="cls-2" d="M27.85,89.53a.78.78,0,0,1-.49-.19c-.32-.25-.26-.85.19-1.94a28.55,28.55,0,0,1,1.65-3.24c1.45-2.53,3.32-5.36,4.53-7,1-1.34,3.55-4.88,6.85-8.88A100.19,100.19,0,0,1,50.69,57.38a112,112,0,0,1,9.25-7.26c3.64-2.65,6.78-4.94,8.7-7.32,6-7.52,6.56-10.07,6.79-11.16a2.32,2.32,0,0,1,.19-.61.62.62,0,0,1,.43-.29c.72-.11,2,.93,2.19,1.14l.11.1,0,.15S77,36.59,72.14,42.63c-2.51,3.13-8.09,7.58-13.48,11.88-5.06,4-10.3,8.21-12.67,11.07A83,83,0,0,0,33.16,85.83a9.45,9.45,0,0,1-1.09,2.1h0a.83.83,0,0,1-.61.34c-.23,0-.35-.19-.47-.34s-.25-.35-.52-.35h0c-.28,0-.71.47-1.08.88S28.39,89.53,27.85,89.53ZM76.18,31.21h-.05s-.08,0-.09.06a1.78,1.78,0,0,0-.14.47c-.23,1.12-.79,3.75-6.89,11.36-2,2.43-5.12,4.74-8.79,7.41A111,111,0,0,0,51,57.74c-1.82,1.63-8.41,7.87-16.89,19.66-1.18,1.65-3,4.43-4.46,6.92-2.38,4.15-2,4.63-2,4.65.32.25.74-.17,1.36-.83s.93-1,1.42-1a1.07,1.07,0,0,1,.94.54l.12.14a1,1,0,0,0,.23-.19h0a12,12,0,0,0,1-2,83.86,83.86,0,0,1,12.9-20.37c2.41-2.9,7.43-6.9,12.74-11.14s10.93-8.71,13.41-11.8a35.08,35.08,0,0,0,6-10.19A3.77,3.77,0,0,0,76.18,31.21Z"/><path class="cls-2" d="M33.79,77.16c2.15-3,9.72-13.25,16.94-19.73A113.65,113.65,0,0,1,60,50.17c3.64-2.65,6.79-4.94,8.71-7.33,6-7.53,6.58-10.09,6.81-11.19a2,2,0,0,1,.18-.59.51.51,0,0,1,.38-.25c.71-.12,2,1,2.13,1.12l.09.07,0,.11s-1.33,4.45-6.16,10.48C69.58,45.71,64,50.16,58.62,54.46c-5.07,4-10.3,8.21-12.68,11.07A83.64,83.64,0,0,0,33.1,85.81,9.89,9.89,0,0,1,32,87.88h0c-.23.24-.4.34-.57.33s-.3-.17-.41-.32a.67.67,0,0,0-.6-.37c-.31,0-.73.46-1.13.89-.6.66-1.28,1.4-1.92.88C26.05,88.21,33.71,77.27,33.79,77.16ZM31.33,87.69c.05.07.12.16.16.17s.08,0,.28-.21h0a10.62,10.62,0,0,0,1-2A84.06,84.06,0,0,1,45.67,65.31c2.4-2.89,7.42-6.89,12.73-11.12s10.94-8.73,13.42-11.82a35.24,35.24,0,0,0,6.06-10.25c-.51-.43-1.37-1-1.76-1a.18.18,0,0,0-.14.09,1.76,1.76,0,0,0-.14.48c-.24,1.12-.79,3.74-6.88,11.34-1.95,2.42-5.11,4.73-8.78,7.4A112.76,112.76,0,0,0,51,57.69c-7.38,6.62-15.37,17.55-16.89,19.67C30.72,82,27,88.51,27.62,89c.36.29.81-.14,1.45-.84.47-.51.91-1,1.38-1a.92.92,0,0,1,.6.2A1.6,1.6,0,0,1,31.33,87.69Z"/><path class="cls-2" d="M27.85,89.71a1,1,0,0,1-.6-.23c-.47-.38-.6-1.49,2.6-6.75C31.62,79.84,33.57,77,33.59,77h0c2.15-3,9.74-13.27,17-19.77A115.7,115.7,0,0,1,59.83,50c3.64-2.64,6.77-4.93,8.67-7.29,6-7.48,6.54-10,6.76-11.09a2.23,2.23,0,0,1,.21-.66.79.79,0,0,1,.55-.37c.84-.13,2.18,1.05,2.33,1.18l.2.17-.07.26c-.06.18-1.38,4.54-6.21,10.56-2.52,3.14-8.1,7.6-13.5,11.9l-.16-.18.15.19c-5,4-10.27,8.19-12.64,11A83,83,0,0,0,33.32,85.9h0a9.54,9.54,0,0,1-1.11,2.14,1,1,0,0,1-.75.39.78.78,0,0,1-.6-.41c-.14-.19-.21-.28-.39-.27s-.66.49-1,.82C29,89.07,28.46,89.71,27.85,89.71Zm-.06-.86c.18.1.53-.21,1.1-.83s1-1.08,1.55-1.09a1.14,1.14,0,0,1,.76.25,2,2,0,0,1,.32.36h0l.07-.07h0a11.37,11.37,0,0,0,1-1.92,83.83,83.83,0,0,1,12.93-20.4c2.42-2.91,7.44-6.92,12.76-11.16s10.92-8.71,13.38-11.78a35.4,35.4,0,0,0,6-10,3.63,3.63,0,0,0-1.43-.82,3.45,3.45,0,0,0-.1.39c-.24,1.14-.8,3.8-6.92,11.44-2,2.45-5.15,4.76-8.83,7.44a114.63,114.63,0,0,0-9.2,7.22C43.76,64.48,35.79,75.38,34.26,77.5S31,82.34,29.69,84.63C28.08,87.48,27.73,88.61,27.79,88.85Z"/><path class="cls-1" d="M69.65,7.67c-1.44,1.34-4,6.61-2.43,10s6.83,7.34,9.09,7.17,3.33-3.82,1.61-5.47-4.17-2-5.9-4.21C69.87,12.35,71.19,6.25,69.65,7.67Z"/><path class="cls-2" d="M66.28,18.08c-1.82-4,1.08-9.7,2.67-11.17h0a1.45,1.45,0,0,1,1.55-.4c.92.37,1,1.43,1.12,3s.29,3.75,1.21,4.95a8.46,8.46,0,0,0,3.09,2.29,11.71,11.71,0,0,1,2.71,1.8,4.33,4.33,0,0,1,.88,4.6,3.73,3.73,0,0,1-3.12,2.65c-1.47.11-3.74-1.05-5.81-2.71A15.57,15.57,0,0,1,66.28,18.08Zm8.67.54a10.49,10.49,0,0,1-3.75-2.86c-1.31-1.69-1.5-4.21-1.64-6.06,0-.06,0-.13,0-.2-1.15,1.88-2.44,5.42-1.39,7.71,1.47,3.2,6.42,6.69,8.07,6.57a1.78,1.78,0,0,0,1.34-1.29,2.34,2.34,0,0,0-.37-2.41,3.11,3.11,0,0,0-.33-.29A12.91,12.91,0,0,0,75,18.62Z"/><path class="cls-1" d="M90,5.44c5,4,3.85,10.24,2.46,11s-3.12-.25-6.18-2.7-6.94,1-8.33-.19-1.46-4,.35-6.22S86.29,2.47,90,5.44Z"/><path class="cls-2" d="M77.25,14.3c-1.92-1.73-1.82-5.08.23-7.63a11.17,11.17,0,0,1,5.7-3.26,8.43,8.43,0,0,1,7.46,1.22,10.45,10.45,0,0,1,4,9.08c-.16,1.79-.8,3.14-1.7,3.62-2.12,1.13-4.46-.53-7.31-2.81-1.37-1.1-3-.61-4.63-.14-1.31.39-2.65.79-3.65,0ZM79.1,8c-1.46,1.81-1.42,3.94-.48,4.79a5.15,5.15,0,0,0,1.78-.35c1.81-.54,4.29-1.27,6.52.51,2.88,2.32,4.25,3,5,2.61a4.22,4.22,0,0,0,.67-2.64,8.42,8.42,0,0,0-3.26-6.63C86.28,3.79,80.71,5.94,79.1,8Z"/><path class="cls-1" d="M99.76,24.81c0,3.5-5,7.53-5.78,6.88s0-3.53-.43-4.58,1.24-2.71,1-4.46,1-3.71,2.24-3.77S99.75,22.68,99.76,24.81Z"/><path class="cls-2" d="M92.63,29.18a6.64,6.64,0,0,0,0-1.64A3.35,3.35,0,0,1,93,24.73a4.35,4.35,0,0,0,.56-2A5.19,5.19,0,0,1,94.75,19a2.89,2.89,0,0,1,2-1.12,2.05,2.05,0,0,1,1.53.65,10.6,10.6,0,0,1,2.49,6.3h0c0,3.31-3.54,6.76-5.45,7.68a1.81,1.81,0,0,1-2,0C92.47,31.8,92.54,30.53,92.63,29.18Zm6.1-4.37c0-1.71-1.26-4.45-1.92-4.88a1.23,1.23,0,0,0-.49.38,3.17,3.17,0,0,0-.69,2.23,5.81,5.81,0,0,1-.73,3,4.53,4.53,0,0,0-.41,1.09,5.89,5.89,0,0,1,.2,2.64c0,.34,0,.84,0,1.22,1.28-.75,4.1-3.4,4.08-5.72Z"/><path class="cls-1" d="M90.7,28.67c-2.52,1.79-10.94.1-12.1-2.42s2-2,6.72-4.42,4.35-3.93,6.32-5.4S97.8,23.63,90.7,28.67Z"/><path class="cls-2" d="M77.66,26.68a2.57,2.57,0,0,1-.17-2.14c.45-1,1.61-1.43,3.21-2a28,28,0,0,0,4.15-1.67,10.88,10.88,0,0,0,4.44-3.51A8.69,8.69,0,0,1,91,15.61,1.86,1.86,0,0,1,93,15.42c1.35.6,2.47,2.66,2.71,5a9.77,9.77,0,0,1-4.36,9.06h0c-1.82,1.3-5.59,1.09-8.52.31a11.59,11.59,0,0,1-4-1.83A3.75,3.75,0,0,1,77.66,26.68Zm12.45,1.15a7.61,7.61,0,0,0,3.41-7.76,4.45,4.45,0,0,0-1.35-2.74,6.78,6.78,0,0,0-1.24,1.33,12.91,12.91,0,0,1-5.14,4.09,28.11,28.11,0,0,1-4.44,1.79,7.89,7.89,0,0,0-2,.8,1.14,1.14,0,0,0,.15.47c.26.57,1.53,1.41,3.78,2,2.77.74,5.75.74,6.79,0Z"/><path class="cls-1" d="M71.47,4.75c-2.9,4.44-.76,10.53,5.74,13.49s-.88-4.68.3-8.64,6.16-4.2,5.63-5.69S74.36.32,71.47,4.75Z"/><path class="cls-2" d="M69.53,11.5A8.76,8.76,0,0,1,70.6,4.19C72.81.81,77.2.94,79,1.15s4.6.92,5.13,2.42S83.2,5.8,82.05,6.42c-1.33.71-3,1.61-3.55,3.48-.4,1.34.64,3.63,1.4,5.31.89,1.95,1.53,3.36.61,4.28s-2.06.45-3.73-.31a15.63,15.63,0,0,1-3.29-2A11.46,11.46,0,0,1,69.53,11.5ZM78,16.06c-.94-2.08-2.12-4.68-1.5-6.75.81-2.7,3.06-3.91,4.56-4.71.26-.15.6-.33.84-.48a10,10,0,0,0-4.92-1,5.67,5.67,0,0,0-4.67,2.19,6.68,6.68,0,0,0-.81,5.61,10.7,10.7,0,0,0,6.12,6.37,9.45,9.45,0,0,0,1.1.44C78.56,17.25,78.26,16.59,78,16.06Z"/><path class="cls-1" d="M67.25,29.33c-4.51-4.11-6.15-10.5-2.92-14.53s1.74,2.45,5.56,5.78,7.49,2.57,7.55,4.47,1.27,7.51-1.35,7.79S69.7,31.56,67.25,29.33Z"/><path class="cls-2" d="M66.56,30.09h0c-5.13-4.66-6.46-11.67-3-15.94.77-1,1.63-1.83,2.66-1.64s1.46,1.36,1.88,2.7a9.55,9.55,0,0,0,2.5,4.6A13.09,13.09,0,0,0,75.5,22.4c1.44.48,2.92,1,3,2.62,0,.31.06.78.12,1.32.29,2.69.76,7.19-2.39,7.53-2.62.29-6.28-1-9-3.21C67,30.47,66.77,30.29,66.56,30.09Zm8.29-5.72a15.18,15.18,0,0,1-5.64-3,11.35,11.35,0,0,1-3.11-5.53c-.11-.34-.24-.76-.36-1.06a7.42,7.42,0,0,0-.6.68c-2.75,3.42-1.51,9.18,2.81,13.12h0c2.27,2.07,5.8,3.49,8,3.25,1.1-.12.7-3.86.56-5.26-.07-.58-.12-1.08-.13-1.48a.12.12,0,0,0,0,0L76.34,25A7.28,7.28,0,0,0,74.85,24.37Z"/><path class="cls-1" d="M83.66,36.79c-4-.19-7.67-2.17-7.18-7.08s2.7-.88,7.88-.57S90,27.2,92.76,26.6s1.29,5.41-2,7.58C90.71,34.24,86.46,36.93,83.66,36.79Z"/><path class="cls-2" d="M77,35.08a7,7,0,0,1-1.52-5.47c.12-1.2.38-2.51,1.34-3.08s2.06-.13,3.31.4a12.79,12.79,0,0,0,4.32,1.18,7.74,7.74,0,0,0,5.41-1.3,8,8,0,0,1,2.71-1.22A2,2,0,0,1,95,26.79c1,2.35-1.18,6.64-3.59,8.25-.05,0-4.57,2.94-7.76,2.79h0a10,10,0,0,1-5.8-1.94A6.46,6.46,0,0,1,77,35.08Zm6.73.68c2.09.1,5.5-1.78,6.52-2.44a7.5,7.5,0,0,0,2.85-4.58,2.37,2.37,0,0,0,0-1.14H93a6.42,6.42,0,0,0-2.07,1,9.72,9.72,0,0,1-6.61,1.6,14.47,14.47,0,0,1-5-1.33,6.58,6.58,0,0,0-1.46-.51,3.86,3.86,0,0,0-.33,1.49,5,5,0,0,0,1,3.91,7.18,7.18,0,0,0,5.17,2Z"/><path class="cls-1" d="M90.59,16.92c.26,2.39-7.92,6.89-11.37,5.58-.55-.21-1.49-6.89.13-8.91C82.32,9.88,90.34,14.67,90.59,16.92Z"/><path class="cls-2" d="M77.91,22.09c-.5-1.83-1-7.07.63-9.14,1.36-1.7,3.67-2.19,6.5-1.37s6.36,3.21,6.58,5.22q.18,1.69-2.3,3.62c-2.46,1.9-7.48,4.18-10.47,3a1.57,1.57,0,0,1-.31-.18A2.18,2.18,0,0,1,77.91,22.09Zm6.55-8.52c-1.14-.33-3.22-.69-4.31.67s-.66,6-.24,7.39c2,.43,5.71-1,8-2.74,1.41-1.05,1.66-1.73,1.65-1.86C89.5,16.44,87.39,14.42,84.46,13.57Z"/><path class="cls-1" d="M34.89,5c2.52,3.14,4.09,7.58,2.91,8.92s-3.58-.17-6.1-4.64-6.05-7.87-4-8.16S32.88,2.45,34.89,5Z"/><path class="cls-2" d="M38.26,14.86a2.34,2.34,0,0,1-1.74.5c-2.24-.23-4.35-3.19-5.72-5.62C30,8.26,29,6.9,28.18,5.7c-1.62-2.31-2.51-3.58-2-4.71A1.64,1.64,0,0,1,27.52,0C30-.31,33.46,1.52,35.69,4.3c2.38,3,4.71,8.18,2.89,10.25A3.11,3.11,0,0,1,38.26,14.86Zm-10-12.79c.32.61,1,1.61,1.6,2.45.86,1.23,1.84,2.63,2.73,4.2,2,3.48,3.52,4.52,4.13,4.58a.29.29,0,0,0,.3-.11c.54-.63-.35-4.35-3-7.6C32.36,3.45,29.84,2.14,28.27,2.07Z"/><path class="cls-1" d="M3.89,15.37c.39-3.52,2.77-3.82,3.53-3.36s3.75,3.8,2,5.58c-2.06,2.05-3.25,2.21-4.51,1A3.29,3.29,0,0,1,3.89,15.37Z"/><path class="cls-2" d="M9.11,19.23c-1.45,1.16-3.18,1.83-5,.07a4.24,4.24,0,0,1-1.29-3.92l0-.13c.29-2.66,1.62-3.7,2.39-4.09a2.91,2.91,0,0,1,2.69,0,7.91,7.91,0,0,1,3,4.64,3,3,0,0,1-.84,2.56A12.42,12.42,0,0,1,9.11,19.23Zm-3.2-6a3.38,3.38,0,0,0-1,2.29v.13a2.21,2.21,0,0,0,.68,2.22c.57.55,1,1,3.07-1A.92.92,0,0,0,8.9,16a6,6,0,0,0-2-3.15,1.16,1.16,0,0,0-.79.17Z"/><path class="cls-2" d="M68.9,87.64c.75.8.54-.43,1.45-.42s2,2.54,2.94,1.81-3.84-8.31-6.42-11.89S56.87,63.65,50,57.44,35.46,47.17,32,42.83c-7.42-9.24-6.59-11.09-7-11.8s-2.25.91-2.25.91S24,36.29,28.85,42.36,50.09,59.41,55,65.3C65.65,78.12,67.94,86.63,68.9,87.64Z"/><path class="cls-2" d="M71.43,88.34c-.38-.41-.8-.87-1.09-.88h0c-.28,0-.39.16-.53.35a.67.67,0,0,1-.46.34.88.88,0,0,1-.61-.34h0a9.45,9.45,0,0,1-1.09-2.1A83.31,83.31,0,0,0,54.81,65.45c-2.38-2.85-7.61-7-12.67-11.06-5.39-4.31-11-8.75-13.48-11.88-4.84-6-6.16-10.46-6.17-10.5l0-.15.11-.1c.24-.21,1.46-1.25,2.19-1.14a.58.58,0,0,1,.42.29,1.76,1.76,0,0,1,.19.61c.23,1.09.77,3.64,6.8,11.16,1.91,2.38,5.06,4.67,8.7,7.32a115.4,115.4,0,0,1,9.25,7.26A100.19,100.19,0,0,1,60.22,68.12c3.29,4,5.88,7.54,6.84,8.88,1.22,1.68,3.09,4.51,4.53,7a28.92,28.92,0,0,1,1.66,3.24c.45,1.09.51,1.69.19,1.94a.78.78,0,0,1-.5.19C72.41,89.41,71.88,88.83,71.43,88.34ZM23,32a35.08,35.08,0,0,0,6,10.19c2.48,3.09,8,7.52,13.41,11.8s10.33,8.24,12.74,11.14a84.07,84.07,0,0,1,12.9,20.36,11,11,0,0,0,1,2h0a1,1,0,0,0,.23.19l.12-.14a1.09,1.09,0,0,1,.93-.55c.5,0,1,.51,1.43,1s1,1.09,1.36.84c0,0,.38-.5-2-4.65-1.44-2.5-3.28-5.28-4.46-6.92-8.48-11.79-15.07-18-16.89-19.67a114.7,114.7,0,0,0-9.21-7.22c-3.67-2.67-6.84-5-8.79-7.41-6.1-7.61-6.66-10.24-6.89-11.37a1.81,1.81,0,0,0-.14-.46.12.12,0,0,0-.09-.06h-.05A3.77,3.77,0,0,0,23,32Z"/><path class="cls-2" d="M73.4,89.17c-.65.52-1.32-.22-1.92-.88-.4-.43-.82-.89-1.13-.89a.66.66,0,0,0-.6.37c-.11.15-.22.3-.42.31s-.34-.08-.56-.32h0a10.38,10.38,0,0,1-1.07-2.08A83.65,83.65,0,0,0,54.86,65.41c-2.38-2.86-7.62-7-12.68-11.07-5.39-4.3-11-8.75-13.47-11.87C23.88,36.44,22.57,32,22.55,32l0-.11.08-.07c.15-.13,1.43-1.24,2.14-1.13a.57.57,0,0,1,.38.26,1.87,1.87,0,0,1,.18.59c.23,1.09.77,3.66,6.81,11.19,1.92,2.39,5.07,4.68,8.71,7.33a113.65,113.65,0,0,1,9.25,7.26C57.29,63.79,64.86,74.05,67,77,67.09,77.14,74.75,88.09,73.4,89.17Zm-3.65-1.92a.83.83,0,0,1,.6-.2c.47,0,.91.49,1.38,1,.64.69,1.09,1.13,1.45.84.63-.51-3.1-7-6.45-11.66-1.53-2.12-9.52-13-16.9-19.67a115.16,115.16,0,0,0-9.21-7.24c-3.67-2.66-6.83-5-8.78-7.39C25.75,35.34,25.19,32.72,25,31.6a1.76,1.76,0,0,0-.14-.48.18.18,0,0,0-.14-.09c-.39-.06-1.25.53-1.76,1A35.24,35.24,0,0,0,29,42.25c2.48,3.09,8,7.53,13.42,11.81S52.73,62.3,55.13,65.19A84.06,84.06,0,0,1,68,85.54a10.26,10.26,0,0,0,1,2h0c.2.22.27.22.28.22a.76.76,0,0,0,.16-.18A1.91,1.91,0,0,1,69.75,87.25Z"/><path class="cls-2" d="M71.3,88.45c-.3-.32-.75-.81-1-.81s-.26.08-.4.27a.78.78,0,0,1-.59.41,1,1,0,0,1-.75-.39,9.86,9.86,0,0,1-1.12-2.14h0a83,83,0,0,0-12.8-20.21c-2.37-2.85-7.59-7-12.64-11l.14-.19-.15.18c-5.4-4.31-11-8.76-13.51-11.9-4.83-6-6.14-10.38-6.2-10.57l-.07-.25.2-.17c.15-.13,1.49-1.31,2.32-1.18a.77.77,0,0,1,.55.37,1.9,1.9,0,0,1,.21.66c.23,1.08.76,3.6,6.77,11.09,1.89,2.36,5,4.65,8.67,7.29a115.2,115.2,0,0,1,9.26,7.27c7.24,6.5,14.82,16.77,17,19.77h0s2,2.82,3.74,5.71c3.2,5.26,3.07,6.37,2.6,6.75a.93.93,0,0,1-.6.22C72.34,89.58,71.76,89,71.3,88.45Zm-.19-3.94c-1.3-2.29-3-5-4.57-7.13s-9.5-13-16.87-19.64a114.83,114.83,0,0,0-9.19-7.21c-3.68-2.68-6.86-5-8.83-7.45C25.53,35.45,25,32.79,24.73,31.65a2,2,0,0,0-.11-.39,3.55,3.55,0,0,0-1.42.82,35.68,35.68,0,0,0,6,10c2.46,3.07,8,7.5,13.38,11.78S52.89,62.13,55.31,65a83.67,83.67,0,0,1,12.92,20.4,12,12,0,0,0,1,1.92h0l.07.07h0a1.65,1.65,0,0,1,.32-.36,1.13,1.13,0,0,1,.76-.25c.56,0,1,.53,1.55,1.09s.91.93,1.1.83S72.72,87.35,71.11,84.51Z"/><path class="cls-1" d="M31.14,7.55c1.45,1.33,4,6.61,2.44,10s-6.83,7.34-9.09,7.16-3.33-3.82-1.61-5.46,4.17-2,5.9-4.21C30.93,12.23,29.61,6.13,31.14,7.55Z"/><path class="cls-2" d="M30.22,23c-2.07,1.65-4.35,2.82-5.81,2.71a3.75,3.75,0,0,1-3.12-2.65,4.3,4.3,0,0,1,.88-4.6,11.51,11.51,0,0,1,2.71-1.8A8.54,8.54,0,0,0,28,14.38c.93-1.2,1.1-3.37,1.22-5s.2-2.68,1.12-3a1.45,1.45,0,0,1,1.55.4h0C33.44,8.26,36.34,14,34.52,18A15.62,15.62,0,0,1,30.22,23Zm-6.29-3.34c-.12.09-.23.19-.34.29a2.36,2.36,0,0,0-.36,2.41,1.75,1.75,0,0,0,1.34,1.28c1.65.13,6.6-3.37,8.07-6.56,1-2.29-.25-5.83-1.39-7.71,0,.07,0,.14,0,.2-.14,1.85-.34,4.37-1.64,6.06a10.49,10.49,0,0,1-3.75,2.86A12.41,12.41,0,0,0,23.93,19.67Z"/><path class="cls-1" d="M10.8,5.32c-5,4-3.84,10.24-2.45,11s3.11-.25,6.18-2.71,6.94,1.06,8.33-.19,1.46-4-.35-6.21S14.51,2.34,10.8,5.32Z"/><path class="cls-2" d="M23.46,14.25c-1,.8-2.35.4-3.65,0-1.6-.47-3.26-1-4.64.14-2.84,2.28-5.19,3.94-7.31,2.81-.89-.48-1.53-1.83-1.7-3.62a10.47,10.47,0,0,1,4-9.08,8.43,8.43,0,0,1,7.46-1.22,11.08,11.08,0,0,1,5.69,3.25c2.05,2.56,2.16,5.91.24,7.63Zm-12-8.13a8.44,8.44,0,0,0-3.26,6.63,4.23,4.23,0,0,0,.67,2.65c.77.41,2.13-.3,5-2.61,2.22-1.79,4.71-1,6.52-.51a5.15,5.15,0,0,0,1.78.35c.94-.85,1-3-.48-4.79C20.08,5.82,14.52,3.66,11.45,6.12Z"/><path class="cls-1" d="M1,24.68c0,3.51,5,7.54,5.79,6.89S6.77,28,7.25,27,6,24.27,6.2,22.53s-1-3.71-2.24-3.77S1.05,22.55,1,24.68Z"/><path class="cls-2" d="M7.47,32.38a1.83,1.83,0,0,1-2,0C3.53,31.44,0,28,0,24.68H0a10.6,10.6,0,0,1,2.49-6.3A2.05,2.05,0,0,1,4,17.73a2.89,2.89,0,0,1,2,1.12,5.18,5.18,0,0,1,1.17,3.79,4.16,4.16,0,0,0,.56,2,3.37,3.37,0,0,1,.41,2.82,6.15,6.15,0,0,0,0,1.64C8.25,30.41,8.33,31.68,7.47,32.38Zm-5.4-7.69c0,2.32,2.79,5,4.08,5.71,0-.37,0-.87,0-1.21a5.87,5.87,0,0,1,.2-2.64,4.38,4.38,0,0,0-.41-1.09,5.81,5.81,0,0,1-.73-3,3.21,3.21,0,0,0-.69-2.23A1.14,1.14,0,0,0,4,19.81c-.66.43-1.91,3.17-1.92,4.88Z"/><path class="cls-1" d="M10.09,28.55c2.53,1.79,11,.09,12.11-2.43s-2-2-6.72-4.41-4.35-3.93-6.32-5.4S3,23.5,10.09,28.55Z"/><path class="cls-2" d="M22.05,27.86a11.48,11.48,0,0,1-4,1.84c-2.92.78-6.69,1-8.52-.31h0a9.78,9.78,0,0,1-4.35-9.06c.24-2.37,1.36-4.44,2.71-5a1.88,1.88,0,0,1,1.92.19,8.22,8.22,0,0,1,1.73,1.8A11,11,0,0,0,16,20.79a27.55,27.55,0,0,0,4.15,1.67c1.6.53,2.75.91,3.21,1.95a2.59,2.59,0,0,1-.17,2.15A3.72,3.72,0,0,1,22.05,27.86ZM10.69,27.7c1,.74,4,.74,6.79,0,2.25-.6,3.52-1.44,3.78-2a1,1,0,0,0,.14-.48,8,8,0,0,0-2-.79A30,30,0,0,1,15,22.63a13,13,0,0,1-5.13-4.09,7.1,7.1,0,0,0-1.24-1.33,4.39,4.39,0,0,0-1.35,2.73,7.6,7.6,0,0,0,3.41,7.76Z"/><path class="cls-1" d="M29.33,4.63c2.9,4.44.76,10.52-5.74,13.49s.88-4.69-.3-8.64-6.16-4.2-5.63-5.69S26.44.2,29.33,4.63Z"/><path class="cls-2" d="M27.3,17.05a15.72,15.72,0,0,1-3.28,2c-1.67.76-2.94,1.1-3.73.31S20,17,20.9,15.09c.76-1.68,1.8-4,1.4-5.31C21.74,7.91,20.08,7,18.74,6.3c-1.14-.62-2.57-1.39-2-2.86S20.16,1.22,21.82,1s6.17-.34,8.38,3a8.72,8.72,0,0,1,1.06,7.31A11.44,11.44,0,0,1,27.3,17.05Zm-5.24.57c.26-.09.61-.22,1.1-.44a10.7,10.7,0,0,0,6.12-6.37,6.71,6.71,0,0,0-.81-5.61A5.65,5.65,0,0,0,23.8,3a9.89,9.89,0,0,0-4.92,1c.24.15.57.33.84.48,1.5.8,3.75,2,4.56,4.71.62,2.07-.56,4.67-1.5,6.75C22.54,16.47,22.24,17.13,22.06,17.62Z"/><path class="cls-1" d="M33.55,29.21c4.51-4.11,6.15-10.5,2.91-14.53s-1.74,2.45-5.56,5.78S23.42,23,23.36,24.93s-1.27,7.51,1.35,7.79S31.1,31.44,33.55,29.21Z"/><path class="cls-2" d="M33.58,30.53c-2.7,2.18-6.36,3.51-9,3.22-3.15-.35-2.67-4.84-2.38-7.53.05-.54.1-1,.11-1.33.06-1.65,1.54-2.14,3-2.61a13.14,13.14,0,0,0,4.93-2.6,9.56,9.56,0,0,0,2.5-4.59c.42-1.34.78-2.49,1.88-2.7s1.89.67,2.66,1.64c3.43,4.27,2.1,11.28-3,15.94h0C34,30.16,33.81,30.35,33.58,30.53Zm-9.12-5.69-.06.07a.12.12,0,0,0,0,.05c0,.4-.07.9-.13,1.48-.15,1.4-.54,5.13.56,5.26,2.23.24,5.76-1.18,8-3.26h0c4.32-3.93,5.55-9.69,2.81-13.12a8.51,8.51,0,0,0-.6-.67c-.12.3-.25.72-.36,1.06a11.3,11.3,0,0,1-3.12,5.53,15,15,0,0,1-5.64,3A7.1,7.1,0,0,0,24.46,24.84Z"/><path class="cls-1" d="M17.14,36.67c4-.19,7.67-2.17,7.18-7.08s-2.7-.88-7.88-.57S10.77,27.08,8,26.48s-1.3,5.41,2,7.57C10.09,34.12,14.33,36.8,17.14,36.67Z"/><path class="cls-2" d="M23,35.77a10,10,0,0,1-5.8,1.93h0c-3.19.15-7.72-2.76-7.76-2.78C7,33.31,4.84,29,5.84,26.66a2,2,0,0,1,2.42-1.19A8.09,8.09,0,0,1,11,26.69,7.74,7.74,0,0,0,16.38,28a12.66,12.66,0,0,0,4.31-1.18c1.26-.53,2.34-1,3.32-.4s1.21,1.88,1.33,3.08A7,7,0,0,1,23.83,35,6.46,6.46,0,0,1,23,35.77Zm-5.9-.13a7.2,7.2,0,0,0,5.18-2,5,5,0,0,0,1-3.92A3.82,3.82,0,0,0,23,28.2a6.66,6.66,0,0,0-1.45.52,14.7,14.7,0,0,1-5,1.33,9.81,9.81,0,0,1-6.62-1.6,6.27,6.27,0,0,0-2.06-1H7.74a2.2,2.2,0,0,0,0,1.13,7.5,7.5,0,0,0,2.84,4.58c1,.67,4.43,2.55,6.52,2.45Z"/><path class="cls-1" d="M10.21,16.8c-.27,2.39,7.92,6.89,11.37,5.58.54-.21,1.49-6.89-.13-8.91C18.48,9.76,10.45,14.54,10.21,16.8Z"/><path class="cls-2" d="M22.25,23.17a1.33,1.33,0,0,1-.31.18c-3,1.13-8-1.15-10.46-3.05Q9,18.38,9.18,16.68c.22-2,3.64-4.36,6.58-5.22s5.13-.34,6.5,1.36c1.66,2.08,1.13,7.32.63,9.15A2.16,2.16,0,0,1,22.25,23.17Zm-11-6.26c0,.12.25.8,1.66,1.86,2.29,1.72,6.05,3.17,8,2.74.43-1.35.82-6.08-.23-7.39s-3.17-1-4.31-.67C13.41,14.3,11.3,16.32,11.23,16.91Z"/></g></g></svg>