<?xml version="1.0" standalone="no"?>
<!DOCTYPE svg PUBLIC "-//W3C//DTD SVG 1.1//EN" "http://www.w3.org/Graphics/SVG/1.1/DTD/svg11.dtd" >
<svg xmlns="http://www.w3.org/2000/svg" xmlns:xlink="http://www.w3.org/1999/xlink" version="1.1">
<metadata>
Created by FontForge 20170731 at Thu Jun 15 19:44:56 2017
 By Aleksey,,,
Copyright (c) 2010 by Colophon Foundry. All rights reserved. Trial version for testing, previewing and presentation purposes only. Full licence required for commercial use.
</metadata>
<defs>
<font id="FortescueTrial-Regular" horiz-adv-x="550" >
  <font-face 
    font-family="Fortescue Trial"
    font-weight="400"
    font-stretch="normal"
    units-per-em="1000"
    panose-1="2 0 5 3 6 0 0 2 0 3"
    ascent="800"
    descent="-200"
    x-height="448"
    cap-height="715"
    bbox="-44 -293 1101 830"
    underline-thickness="50"
    underline-position="-200"
    unicode-range="U+000D-FB02"
  />
<missing-glyph horiz-adv-x="385" 
d="M20 0v715h339v-715h-339zM70 50h239v614h-239v-614z" />
    <glyph glyph-name=".notdef" horiz-adv-x="385" 
d="M20 0v715h339v-715h-339zM70 50h239v614h-239v-614z" />
    <glyph glyph-name=".null" horiz-adv-x="0" 
 />
    <glyph glyph-name="nonmarkingreturn" horiz-adv-x="333" 
 />
    <glyph glyph-name="NULL" horiz-adv-x="0" 
 />
    <glyph glyph-name="NULL" horiz-adv-x="0" 
 />
    <glyph glyph-name="CR" unicode="&#xd;" horiz-adv-x="245" 
 />
    <glyph glyph-name="space" unicode=" " horiz-adv-x="245" 
 />
    <glyph glyph-name="exclam" unicode="!" horiz-adv-x="303" 
d="M184 205h-42l-37 461q0 26 16.5 43.5t41.5 17.5t41.5 -17.5t16.5 -43.5zM98 53q0 26 19 45.5t46 19.5t46 -19.5t19 -45.5q0 -27 -19 -46t-46 -19t-46 19t-19 46z" />
    <glyph glyph-name="quotedbl" unicode="&#x22;" horiz-adv-x="345" 
d="M105 458h-18q-3 11 -12 41.5t-13 45.5t-9.5 37.5t-8 38.5t-2.5 28q0 29 14 47.5t40 18.5t40 -18.5t14 -47.5q0 -12 -2.5 -28t-8 -38.5t-9.5 -37.5t-13 -45.5t-12 -41.5zM260 458h-18q-3 11 -12 41.5t-13 45.5t-9.5 37.5t-8 38.5t-2.5 28q0 29 14 47.5t40 18.5t40 -18.5
t14 -47.5q0 -12 -2.5 -28t-8 -38.5t-9.5 -37.5t-13 -45.5t-12 -41.5z" />
    <glyph glyph-name="numbersign" unicode="#" 
d="M30 422v50h154l61 243h50l-61 -243h128l61 243h50l-61 -243h137v-50h-150l-32 -129h152v-50h-165l-61 -243h-50l61 243h-128l-61 -243h-50l61 243h-125v50h138l32 129h-141zM221 422l-32 -129h128l32 129h-128z" />
    <glyph glyph-name="dollar" unicode="$" 
d="M264 -115v104q-81 5 -144 40t-87 91q-8 17 -8 36q0 25 15.5 40t36.5 15q47 0 54 -60q9 -97 133 -105v284q-34 12 -51.5 19t-47 21t-45.5 28t-33.5 34.5t-25 47.5t-7.5 59q0 87 61.5 133.5t148.5 53.5v104h50v-104q90 -3 151 -46q48 -34 48 -72q0 -18 -12.5 -30.5
t-29.5 -12.5q-41 0 -64 55q-15 31 -35.5 42.5t-57.5 13.5v-264q33 -12 45 -17t41 -18t42 -21.5t33.5 -25t29.5 -32.5t16.5 -38.5t7.5 -47.5q0 -94 -55 -155t-160 -68v-104h-50zM426 184q0 47 -29 75.5t-83 51.5v-264q112 16 112 137zM157 560q0 -45 27.5 -74t79.5 -53v241
q-45 -8 -76 -37.5t-31 -76.5z" />
    <glyph glyph-name="percent" unicode="%" horiz-adv-x="629" 
d="M93 23l402 692l40 -23l-402 -692zM303 582q0 -58 -36 -98t-90 -40t-90 40t-36 98t36 98t90 40t90 -40t36 -98zM245 582q0 109 -68 109q-67 0 -67 -109t67 -109q68 0 68 109zM578 133q0 -58 -36 -98t-90 -40t-90 40t-36 98t36 98t90 40t90 -40t36 -98zM520 133
q0 109 -68 109q-67 0 -67 -109t67 -109q68 0 68 109z" />
    <glyph glyph-name="ampersand" unicode="&#x26;" horiz-adv-x="694" 
d="M665 4v-16q-86 0 -137 15.5t-85 54.5q-71 -70 -189 -70q-96 0 -157.5 55.5t-61.5 141.5q0 71 43.5 126t115.5 91q-42 60 -56.5 96.5t-14.5 75.5q0 65 52 107.5t123 42.5q78 0 125 -39t47 -98q0 -60 -35.5 -100.5t-120.5 -81.5l159 -235q40 71 71 190l-63 45v7h121v-7
l-9 -32q-49 -167 -94 -242q27 -37 39 -51.5t32.5 -33t41.5 -27t53 -15.5zM303 49q61 0 112 46l-191 265q-88 -58 -88 -149q0 -78 45.5 -120t121.5 -42zM211 590q0 -29 16 -56l64 -95q101 46 101 136q0 49 -24.5 74t-69.5 25q-39 0 -63 -24t-24 -60z" />
    <glyph glyph-name="quotesingle" unicode="'" horiz-adv-x="161" 
d="M88 458h-18q-3 11 -12 41.5t-13 45.5t-9.5 37.5t-8 38.5t-2.5 28q0 29 14 47.5t40 18.5t40 -18.5t14 -47.5q0 -12 -2.5 -28t-8 -38.5t-9.5 -37.5t-13 -45.5t-12 -41.5z" />
    <glyph glyph-name="parenleft" unicode="(" horiz-adv-x="311" 
d="M42 282q0 280 233 447l11 -14q-85 -88 -122.5 -186.5t-37.5 -246.5t37.5 -246.5t122.5 -186.5l-11 -14q-233 167 -233 447z" />
    <glyph glyph-name="parenright" unicode=")" horiz-adv-x="311" 
d="M269 282q0 -280 -233 -447l-11 14q85 88 122.5 186.5t37.5 246.5t-37.5 246.5t-122.5 186.5l11 14q233 -167 233 -447z" />
    <glyph glyph-name="asterisk" unicode="*" horiz-adv-x="450" 
d="M218 369l-20 125l-114 -53l-6 8l98 93l-98 92l6 10l114 -53l20 124h11l20 -125l116 54l6 -10l-99 -92l99 -93l-6 -8l-116 54l-20 -126h-11z" />
    <glyph glyph-name="plus" unicode="+" horiz-adv-x="510" 
d="M229 516h50v-193h194v-50h-194v-193h-50v193h-193v50h193v193z" />
    <glyph glyph-name="comma" unicode="," horiz-adv-x="238" 
d="M47 53q0 26 19 45.5t46 19.5q74 0 74 -96q0 -110 -109 -189l-11 10q34 32 47 56t13 53q0 18 -7 26.5t-25 12.5q-47 11 -47 62z" />
    <glyph glyph-name="hyphen" unicode="-" horiz-adv-x="422" 
d="M34 291v50h348v-50h-348z" />
    <glyph glyph-name="period" unicode="." horiz-adv-x="238" 
d="M47 53q0 26 19 45.5t46 19.5q26 0 45.5 -19.5t19.5 -45.5q0 -27 -19.5 -46t-45.5 -19q-27 0 -46 19t-19 46z" />
    <glyph glyph-name="slash" unicode="/" horiz-adv-x="410" 
d="M-10 0l345 715h85l-345 -715h-85z" />
    <glyph glyph-name="zero" unicode="0" horiz-adv-x="612" 
d="M306 727q120 0 194 -100t74 -269t-74 -269.5t-194 -100.5t-194 100.5t-74 269.5t74 269t194 100zM306 38q82 0 124.5 85.5t42.5 234.5t-42 234t-125 85t-125 -85t-42 -234t42.5 -234.5t124.5 -85.5z" />
    <glyph glyph-name="one" unicode="1" horiz-adv-x="370" 
d="M326 0h-237v7l68 50v527q0 34 -7.5 47t-31.5 13t-74 -12v13l214 99v-687l68 -50v-7z" />
    <glyph glyph-name="two" unicode="2" horiz-adv-x="598" 
d="M199 97h250l79 113h7l-35 -210h-459v15q350 324 350 512q0 71 -32.5 109t-94.5 38q-60 0 -109 -51t-71 -113l-32 11q10 35 27.5 68.5t46.5 66t73.5 52t98.5 19.5q86 0 141.5 -53.5t55.5 -134.5q0 -103 -74.5 -209.5t-221.5 -232.5z" />
    <glyph glyph-name="three" unicode="3" horiz-adv-x="598" 
d="M373 396q70 -18 115.5 -62t45.5 -118q0 -109 -70 -168.5t-184 -59.5q-88 0 -146.5 30t-81.5 80q-8 16 -8 33q0 24 16 38.5t38 14.5q44 0 55 -48q12 -47 40 -72.5t87 -25.5q74 0 113.5 48.5t39.5 129.5q0 66 -53.5 106.5t-136.5 50.5v26q64 0 112 38.5t48 109.5
q0 62 -32 95t-93 33q-50 0 -91 -30t-67 -81l-35 12q73 151 218 151q79 0 135.5 -48t56.5 -123q0 -60 -33 -102t-89 -58z" />
    <glyph glyph-name="four" unicode="4" horiz-adv-x="603" 
d="M421 274h108v-50h-108v-167l68 -50v-7h-241v7l68 50v167h-277v12l370 508h12v-470zM316 274v256l-186 -256h186z" />
    <glyph glyph-name="five" unicode="5" horiz-adv-x="617" 
d="M317 488q90 0 158 -57.5t68 -172.5q0 -72 -23.5 -126t-62.5 -84.5t-83 -45t-92 -14.5q-174 0 -222 104q-8 16 -8 34q0 24 15 38.5t36 14.5q42 0 52 -51q18 -90 127 -90q79 0 117 58.5t38 143.5q0 94 -37 145t-109 51q-52 0 -96.5 -35t-73.5 -86h-42l51 400h381l-13 -84
h-328l-27 -219q26 31 72.5 53.5t101.5 22.5z" />
    <glyph glyph-name="six" unicode="6" horiz-adv-x="549" 
d="M303 433q84 0 137.5 -56.5t53.5 -152.5q0 -110 -57.5 -173t-160.5 -63q-42 0 -77.5 11t-70 38t-54 81.5t-19.5 131.5q0 56 12.5 108t34 93t49 78.5t58 65.5t60.5 51.5t57.5 39.5t49 27t34.5 16l12 5l13 -31q-9 -4 -24.5 -12t-56.5 -38t-75.5 -64.5t-69.5 -93t-50 -122.5
q54 60 144 60zM276 38q117 0 117 173q0 83 -31 126.5t-86 43.5q-53 0 -86.5 -44t-33.5 -126q0 -173 120 -173z" />
    <glyph glyph-name="seven" unicode="7" horiz-adv-x="543" 
d="M79 715h439l-262 -715h-74q8 11 16.5 26.5t13.5 25.5l4 10l204 556h-258l-97 -111h-7z" />
    <glyph glyph-name="eight" unicode="8" horiz-adv-x="552" 
d="M501 204q0 -102 -65 -159t-160 -57q-100 0 -162.5 46t-62.5 146q0 61 39 112.5t107 77.5q-52 37 -80.5 77.5t-28.5 98.5q0 88 55.5 134.5t132.5 46.5q80 0 131 -47.5t51 -126.5q0 -49 -28.5 -89.5t-77.5 -59.5q33 -20 56 -37t46 -41.5t35 -55t12 -66.5zM244 340
q-45 -26 -67 -68t-22 -88q0 -67 30.5 -106.5t90.5 -39.5q62 0 91.5 38.5t29.5 97.5q0 28 -11.5 51.5t-38 45.5t-45.5 34.5t-58 34.5zM178 570q0 -44 33.5 -75t99.5 -68q63 32 63 141q0 50 -27.5 79.5t-70.5 29.5q-44 0 -71 -28.5t-27 -78.5z" />
    <glyph glyph-name="nine" unicode="9" horiz-adv-x="549" 
d="M246 282q-84 0 -137.5 56.5t-53.5 152.5q0 110 57.5 173t160.5 63q42 0 77.5 -11t70 -38t54 -81.5t19.5 -131.5q0 -56 -12.5 -108t-34 -93t-49 -78.5t-58 -65.5t-60.5 -51.5t-57.5 -39.5t-49 -27t-33.5 -16l-13 -5l-13 31q9 4 24.5 12t56.5 38t75.5 64.5t69.5 93
t50 122.5q-54 -60 -144 -60zM273 677q-117 0 -117 -173q0 -83 31 -126.5t86 -43.5q53 0 86.5 44t33.5 126q0 173 -120 173z" />
    <glyph glyph-name="colon" unicode=":" horiz-adv-x="238" 
d="M47 53q0 26 19 45.5t46 19.5q26 0 45.5 -19.5t19.5 -45.5q0 -27 -19.5 -46t-45.5 -19q-27 0 -46 19t-19 46zM47 393q0 26 19 45.5t46 19.5q26 0 45.5 -19.5t19.5 -45.5q0 -27 -19.5 -46t-45.5 -19q-27 0 -46 19t-19 46z" />
    <glyph glyph-name="semicolon" unicode=";" horiz-adv-x="238" 
d="M47 393q0 26 19 45.5t46 19.5q26 0 45.5 -19.5t19.5 -45.5q0 -27 -19.5 -46t-45.5 -19q-27 0 -46 19t-19 46zM47 53q0 26 19 45.5t46 19.5q74 0 74 -96q0 -110 -109 -189l-11 10q34 32 47 56t13 53q0 32 -32 39q-47 11 -47 62z" />
    <glyph glyph-name="less" unicode="&#x3c;" horiz-adv-x="510" 
d="M38 263l433 245v-64l-339 -190l339 -190v-64l-433 245v18z" />
    <glyph glyph-name="equal" unicode="=" horiz-adv-x="510" 
d="M41 398v50h428v-50h-428zM41 211v50h428v-50h-428z" />
    <glyph glyph-name="greater" unicode="&#x3e;" horiz-adv-x="510" 
d="M39 508l433 -245v-18l-433 -245v64l339 190l-339 190v64z" />
    <glyph glyph-name="question" unicode="?" horiz-adv-x="558" 
d="M318 194h-41v65q0 41 14 72.5t34.5 53l41 43t34.5 54t14 75.5q0 57 -32 90.5t-84 33.5q-59 0 -85.5 -32t-44.5 -102q-10 -40 -52 -40q-21 0 -36.5 13t-15.5 36q0 18 12 42q65 129 222 129q98 0 158.5 -44.5t60.5 -121.5q0 -53 -23.5 -95.5t-90.5 -93.5
q-55 -42 -70.5 -78.5t-15.5 -99.5zM232 53q0 26 19 45.5t46 19.5t46 -19.5t19 -45.5q0 -27 -19 -46t-46 -19t-46 19t-19 46z" />
    <glyph glyph-name="at" unicode="@" horiz-adv-x="914" 
d="M657 75q-40 0 -64 24.5t-24 62.5q-55 -87 -149 -87q-62 0 -96.5 38.5t-34.5 101.5q0 82 60 149t142 67q71 0 88 -55l8 38h67l-42 -218q-2 -14 -2 -19q0 -24 12 -37t32 -13q89 0 89 180q0 128 -73 197t-191 69q-116 0 -202.5 -89t-86.5 -239q0 -153 85 -235.5t204 -82.5
q186 0 302 127l15 -14q-54 -81 -138.5 -122.5t-178.5 -41.5q-159 0 -270 106t-111 263t111.5 268t269.5 111q151 0 245.5 -86.5t94.5 -230.5q0 -107 -45.5 -169.5t-116.5 -62.5zM435 127q66 0 99.5 50.5t33.5 124.5q0 36 -18 57t-53 21q-60 0 -94.5 -52.5t-34.5 -117.5
q0 -83 67 -83z" />
    <glyph glyph-name="A" unicode="A" horiz-adv-x="734" 
d="M482 7l68 50l-72 174h-273l-72 -174l68 -50v-7h-191v7l68 50l281 681h18l280 -681l67 -50v-7h-242v7zM226 281h232l-106 255l-9 41l-6 -26z" />
    <glyph glyph-name="B" unicode="B" horiz-adv-x="643" 
d="M26 715h283q34 0 64.5 -4t65 -16t59.5 -31t41.5 -52t16.5 -77q0 -65 -38 -103t-91 -48q68 -11 119 -55t51 -123q0 -104 -62.5 -155t-163.5 -51h-345v7l68 50v601l-68 50v7zM199 57l7 -7h119q159 0 159 156q0 87 -49.5 122.5t-142.5 35.5h-86l-7 -8v-299zM199 658v-241
l7 -7h104q57 0 99 28t42 97q0 74 -41.5 102t-113.5 28h-90z" />
    <glyph glyph-name="C" unicode="C" horiz-adv-x="707" 
d="M383 677q-112 0 -173 -89t-61 -230q0 -143 70.5 -231.5t180.5 -88.5q167 0 251 165l28 -19q-78 -196 -279 -196q-176 0 -273.5 100.5t-97.5 269.5q0 157 101.5 263t256.5 106q107 0 201 -44v-162h-16q-44 156 -189 156z" />
    <glyph glyph-name="D" unicode="D" horiz-adv-x="725" 
d="M344 0h-317v7l68 50v601l-68 50v7h317q159 0 252.5 -99.5t93.5 -258.5q0 -158 -93.5 -257.5t-252.5 -99.5zM200 658v-601l7 -7h122q126 0 188.5 82t62.5 225t-62.5 225.5t-188.5 82.5h-122z" />
    <glyph glyph-name="E" unicode="E" horiz-adv-x="616" 
d="M447 357h-242l-7 -7v-293l7 -7h278l97 111h7l-25 -161h-537v7l68 50v601l-68 50v7h508l18 -147h-7l-70 97h-269l-7 -7v-244l7 -7h242l34 58h6v-165h-6z" />
    <glyph glyph-name="F" unicode="F" horiz-adv-x="573" 
d="M467 294l-34 57h-227l-8 -7v-287l68 -50v-7h-241v7l68 50v601l-68 50v7h507l18 -147h-7l-70 97h-267l-8 -7v-250l8 -7h227l34 58h6v-165h-6z" />
    <glyph glyph-name="G" unicode="G" horiz-adv-x="698" 
d="M615 114q0 -15 5.5 -26.5t10.5 -15.5l5 -5q-80 -79 -212 -79q-186 0 -290.5 99t-104.5 271q0 156 107.5 262.5t264.5 106.5q133 0 214 -47v-159h-14q-23 68 -68.5 112t-134.5 44q-111 0 -180 -88.5t-69 -230.5q0 -145 75.5 -232.5t208.5 -87.5q77 0 77 39v189l-7 7h-80
v50h260v-7l-68 -50v-152z" />
    <glyph glyph-name="H" unicode="H" horiz-adv-x="766" 
d="M99 658l-68 50v7h241v-7l-68 -50v-228l7 -7h344l7 7v228l-68 50v7h241v-7l-68 -50v-601l68 -50v-7h-241v7l68 50v309l-7 7h-344l-7 -7v-309l68 -50v-7h-241v7l68 50v601z" />
    <glyph glyph-name="I" unicode="I" horiz-adv-x="301" 
d="M203 658v-601l68 -50v-7h-241v7l68 50v601l-68 50v7h241v-7z" />
    <glyph glyph-name="J" unicode="J" horiz-adv-x="302" 
d="M104 658l-68 50v7h241v-7l-68 -50v-658q0 -107 -59.5 -185t-193.5 -108v31q79 29 113.5 86.5t34.5 150.5v683z" />
    <glyph glyph-name="K" unicode="K" horiz-adv-x="650" 
d="M267 0h-241v7l68 50v601l-68 50v7h241v-7l-68 -50v-253l281 273l-43 30v7h185v-7l-89 -49l-234 -227l70 24l280 -499l-75 42l-80 58l-236 336l-59 -57v-279l68 -50v-7z" />
    <glyph glyph-name="L" unicode="L" horiz-adv-x="579" 
d="M93 658l-68 50v7h241v-7l-68 -50v-601l7 -7h258l97 111h7l-25 -161h-517v7l68 50v601z" />
    <glyph glyph-name="M" unicode="M" horiz-adv-x="875" 
d="M846 0h-240v7l68 50v553l-10 -47l-234 -563h-53l-226 555l-8 55v-553l67 -50v-7h-185v7l68 50v601l-68 50v7h179l214 -527l13 -63l12 48l224 542h179v-7l-67 -50v-601l67 -50v-7z" />
    <glyph glyph-name="N" unicode="N" horiz-adv-x="730" 
d="M518 715h186v-7l-68 -50v-658l-482 574l-11 46v-563l67 -50v-7h-185v7l68 50v601l-68 50v7h148l401 -478l12 -47v468l-68 50v7z" />
    <glyph glyph-name="O" unicode="O" horiz-adv-x="768" 
d="M615 358q0 145 -59 232t-172 87t-172 -87t-59 -232q0 -144 59 -232t172 -88q112 0 171.5 88t59.5 232zM735 358q0 -158 -98 -264t-253 -106t-253 106t-98 264t98 263.5t253 105.5t253 -105.5t98 -263.5z" />
    <glyph glyph-name="P" unicode="P" horiz-adv-x="598" 
d="M27 715h278q38 0 71.5 -4.5t71 -18.5t64 -36.5t44 -62.5t17.5 -93t-17.5 -93t-44 -62.5t-64 -36.5t-71 -18.5t-71.5 -4.5h-97l-8 -7v-221l68 -50v-7h-241v7l68 50v601l-68 50v7zM200 658v-315l8 -8h72q95 0 141.5 33.5t46.5 131.5t-46.5 131.5t-141.5 33.5h-72z" />
    <glyph glyph-name="Q" unicode="Q" horiz-adv-x="768" 
d="M735 358q0 -158 -98 -264t-253 -106l-47 3l-17 -39q28 8 59 8q92 0 183 -80q21 -18 44 -18q16 0 32 8t24 16l8 8q3 -8 3 -18q0 -45 -71 -65q-18 -5 -40 -5q-34 0 -70.5 17t-56.5 32t-52 43l-5 4q-18 15 -47 15q-45 0 -98 -32q4 6 22 53q6 16 6 29q0 42 -46 61
q-86 46 -134 133.5t-48 196.5q0 158 98 263.5t253 105.5t253 -105.5t98 -263.5zM615 358q0 145 -59 232t-172 87t-172 -87t-59 -232q0 -144 59 -232t172 -88q112 0 171.5 88t59.5 232z" />
    <glyph glyph-name="R" unicode="R" horiz-adv-x="663" 
d="M95 57v601l-68 50v7h326q24 0 48.5 -2.5t60.5 -14.5t62 -32t45.5 -59t19.5 -91q0 -87 -53.5 -136.5t-136.5 -63.5l48 -14l214 -345l-104 43l-78 57l-164 253h-108l-7 -7v-246l68 -50v-7h-241v7zM200 658v-291l7 -7h97q75 0 127.5 39.5t52.5 109.5q0 44 -16.5 77t-42 49
t-49.5 23t-46 7h-123z" />
    <glyph glyph-name="S" unicode="S" horiz-adv-x="568" 
d="M528 212q0 -100 -61 -162t-177 -62q-76 0 -147.5 28t-110.5 77v183h28q57 -238 225 -238q70 0 105 41t35 105q0 41 -27.5 70t-69 44t-89.5 34.5t-89.5 40.5t-69 64t-27.5 102q0 49 21.5 87t57 59t75.5 31.5t82 10.5q107 0 190 -46v-156h-20q-6 69 -50.5 110.5
t-115.5 41.5q-53 0 -95 -30.5t-42 -86.5q0 -48 38.5 -80t93 -51.5t109 -42t93 -66t38.5 -108.5z" />
    <glyph glyph-name="T" unicode="T" horiz-adv-x="690" 
d="M41 715h609l25 -161h-7l-77 111h-186l-7 -7v-601l68 -50v-7h-241v7l68 50v601l-7 7h-186l-77 -111h-7z" />
    <glyph glyph-name="U" unicode="U" horiz-adv-x="750" 
d="M25 715h241v-7l-68 -50v-394q0 -38 4.5 -68.5t17.5 -62.5t35 -53t60 -34.5t90 -13.5q66 0 107.5 13.5t63.5 44t29.5 69t7.5 99.5v400l-68 50v7h186v-7l-68 -50v-437q0 -52 -11 -91.5t-38 -74.5t-80 -54t-129 -19q-172 0 -242 67t-70 215v394l-68 50v7z" />
    <glyph glyph-name="V" unicode="V" horiz-adv-x="696" 
d="M502 715h190v-7l-68 -50l-256 -658h-46l-248 658l-68 50v7h245v-7l-68 -50l178 -472l12 -52l9 39l188 485l-68 50v7z" />
    <glyph glyph-name="W" unicode="W" horiz-adv-x="1112" 
d="M5 715h236v-7l-56 -50l172 -456l18 -79l15 66l134 337l-51 132l-68 50v7h245v-7l-68 -50l181 -479l13 -56l7 31l196 504l-68 50v7h190v-7l-68 -50l-256 -658h-54l-173 455l-180 -455h-48l-249 658l-68 50v7z" />
    <glyph glyph-name="X" unicode="X" horiz-adv-x="805" 
d="M88 57l255 306l-234 295l-68 50v7h241v-7l-47 -34l178 -226l176 211l-68 49v7h210v-7l-78 -50l-208 -250l278 -351l68 -50v-7h-273v7l68 50l-212 267l-222 -267l68 -50v-7h-210v7z" />
    <glyph glyph-name="Y" unicode="Y" horiz-adv-x="680" 
d="M478 0h-241v7l68 50v260l-219 341l-68 50v7h264v-7l-68 -50l146 -226l14 -60l13 57l145 229l-68 50v7h196v-7l-68 -50l-182 -287v-314l68 -50v-7z" />
    <glyph glyph-name="Z" unicode="Z" horiz-adv-x="632" 
d="M81 715h507l-414 -665h359l77 111h7l-25 -161h-582l413 665h-293l-60 -97h-7z" />
    <glyph glyph-name="bracketleft" unicode="[" horiz-adv-x="339" 
d="M184 -107h119v-50h-223v872h224v-50h-120l-7 -7v-758z" />
    <glyph glyph-name="backslash" unicode="\" horiz-adv-x="410" 
d="M75 715l345 -715h-85l-345 715h85z" />
    <glyph glyph-name="bracketright" unicode="]" horiz-adv-x="339" 
d="M35 -107h120l7 7v758l-7 7h-120v50h224v-872h-224v50z" />
    <glyph glyph-name="asciicircum" unicode="^" horiz-adv-x="498" 
d="M258 715l215 -357h-84l-140 232l-140 -232h-84l215 357h18z" />
    <glyph glyph-name="underscore" unicode="_" horiz-adv-x="512" 
d="M0 -50v50h512v-50h-512z" />
    <glyph glyph-name="a" unicode="a" horiz-adv-x="476" 
d="M415 301v-262l53 -32v-7h-145v49q-44 -61 -138 -61q-153 0 -153 122q0 138 291 164v37q0 54 -20 78.5t-67 24.5q-42 0 -66.5 -15.5t-34.5 -56.5q-11 -45 -50 -45q-17 0 -30 11t-13 30q0 22 20 48q58 74 174 74q179 0 179 -159zM323 146v87q-101 -9 -148 -33t-47 -84
q0 -38 22 -60t56 -22q52 0 84.5 32t32.5 80z" />
    <glyph glyph-name="b" unicode="b" horiz-adv-x="534" 
d="M277 460q101 0 163.5 -65t62.5 -171q0 -101 -61.5 -168.5t-164.5 -67.5q-47 0 -87 22.5t-62 58.5l-63 -69h-7v682l-53 26v7l145 41v-361q18 28 54 46.5t73 18.5zM277 34q60 0 90.5 50t30.5 140q0 190 -121 190q-52 0 -89.5 -36.5t-37.5 -93.5v-131q0 -52 37.5 -85.5
t89.5 -33.5z" />
    <glyph glyph-name="c" unicode="c" horiz-adv-x="490" 
d="M441 128l20 -29q-22 -44 -75.5 -77.5t-110.5 -33.5q-109 0 -179 62t-70 174q0 107 73 171.5t164 64.5q97 0 154 -54q33 -32 33 -63q0 -20 -13.5 -33.5t-31.5 -13.5q-38 0 -51 53q-15 65 -91 65q-65 0 -98.5 -55t-33.5 -135q0 -87 39.5 -138.5t104.5 -51.5q105 0 166 94z
" />
    <glyph glyph-name="d" unicode="d" horiz-adv-x="539" 
d="M406 0v69q-22 -35 -62.5 -58t-86.5 -23q-103 0 -164.5 67.5t-61.5 168.5q0 106 62.5 171t163.5 65q37 0 73 -18.5t54 -46.5v287l-53 26v7l145 41v-717l53 -32v-7h-123zM136 224q0 -90 30.5 -140t90.5 -50q52 0 89.5 33.5t37.5 85.5v131q0 57 -37.5 93.5t-89.5 36.5
q-121 0 -121 -190z" />
    <glyph glyph-name="e" unicode="e" horiz-adv-x="489" 
d="M445 144l24 -22q-62 -134 -194 -134q-109 0 -177.5 61.5t-68.5 174.5q0 103 67.5 169.5t159.5 66.5q90 0 149.5 -60t59.5 -148v-28h-331q0 -94 37 -142t104 -48q116 0 170 110zM254 414q-59 0 -87.5 -42t-31.5 -102h238v9q0 54 -30 94.5t-89 40.5z" />
    <glyph glyph-name="f" unicode="f" horiz-adv-x="314" 
d="M176 592v-137l7 -7h100v-46h-100l-7 -7v-356l53 -32v-7h-198v7l53 32v356l-7 7h-57v46h57l7 7v124q0 70 36.5 109t107.5 39q77 0 123 -40q25 -21 25 -45q0 -20 -15.5 -34t-35.5 -14q-37 0 -47 45q-10 42 -50 42q-30 0 -41 -21.5t-11 -67.5z" />
    <glyph glyph-name="g" unicode="g" horiz-adv-x="556" 
d="M258 -40q-93 7 -122 15q-30 -30 -30 -80q0 -67 50 -100.5t126 -33.5q72 0 122.5 28t50.5 73q0 27 -17.5 46.5t-50.5 29.5t-61 14.5t-68 7.5zM268 181q51 0 80.5 33.5t29.5 85.5q0 50 -30 84t-80 34q-49 0 -79 -34t-30 -84q0 -52 29.5 -85.5t79.5 -33.5zM268 461
q70 0 123 -31l134 51l8 -10l-85 -98q17 -31 17 -73q0 -79 -58 -120t-139 -41h-7q-31 0 -67.5 -15t-57.5 -30l-20 -15q2 -3 9.5 -7.5t50 -14.5t107.5 -14q36 -2 64 -5.5t66 -14t63.5 -26t43.5 -43t18 -64.5q0 -47 -26.5 -82.5t-69 -53.5t-85.5 -26.5t-85 -8.5q-56 0 -110 16
t-97 58t-43 102q0 38 17 66t40 39q-40 30 -40 91l126 68q-93 43 -93 141q0 79 58.5 120t137.5 41z" />
    <glyph glyph-name="h" unicode="h" horiz-adv-x="545" 
d="M480 318v-279l53 -32v-7h-198v7l53 32v279q0 83 -78 83q-28 0 -67 -22.5t-64 -44.5l-25 -23v-272l53 -32v-7h-198v7l53 32v643l-53 26v7l145 41v-394q14 11 36 27.5t75.5 43.5t89.5 27q125 0 125 -142z" />
    <glyph glyph-name="i" unicode="i" horiz-adv-x="238" 
d="M46 653q0 26 18 44t44 18t44 -18t18 -44t-18 -44t-44 -18t-44 18t-18 44zM160 469v-430l53 -32v-7h-198v7l53 32v356l-53 25v7z" />
    <glyph glyph-name="j" unicode="j" horiz-adv-x="225" 
d="M69 -30v425l-53 25v7l145 42v-469q0 -54 -7 -92.5t-17.5 -64.5t-35.5 -51t-47.5 -41t-67.5 -44l-7 18q61 54 75.5 103.5t14.5 141.5zM170 653q0 -26 -18 -44t-43 -18t-43 18t-18 44q0 25 18 43t43 18t43 -18t18 -43z" />
    <glyph glyph-name="k" unicode="k" horiz-adv-x="453" 
d="M263 309l202 -352l-92 43l-45 39l-134 219l-41 -33v-186l53 -32v-7h-198v7l53 32v643l-53 26v7l145 41v-470l151 129l-42 26v7h180v-7l-81 -39l-121 -103z" />
    <glyph glyph-name="l" unicode="l" horiz-adv-x="244" 
d="M167 756v-717l53 -32v-7h-198v7l53 32v643l-53 26v7z" />
    <glyph glyph-name="m" unicode="m" horiz-adv-x="826" 
d="M753 318v-279l53 -32v-7h-198v7l53 32v279q0 46 -17.5 64.5t-52.5 18.5q-28 0 -60.5 -22.5t-51.5 -44.5l-19 -23v-272l53 -32v-7h-198v7l53 32v279q0 46 -17.5 64.5t-52.5 18.5q-28 0 -60.5 -22.5t-51.5 -44.5l-19 -23v-272l53 -32v-7h-198v7l53 32v356l-53 26v7l145 41
v-107l10.5 10.5t26.5 23.5t40 30t47.5 23.5t51.5 10.5q99 0 114 -101q6 8 28 28.5t67.5 46.5t83.5 26q117 0 117 -142z" />
    <glyph glyph-name="n" unicode="n" horiz-adv-x="554" 
d="M481 318v-279l53 -32v-7h-198v7l53 32v279q0 46 -17 64.5t-52 18.5q-28 0 -66 -22.5t-62 -44.5l-25 -23v-272l53 -32v-7h-198v7l53 32v356l-53 26v7l145 41v-107q14 11 36 27.5t75 43.5t87 27q63 0 89.5 -36.5t26.5 -105.5z" />
    <glyph glyph-name="o" unicode="o" horiz-adv-x="526" 
d="M502 224q0 -99 -68 -167.5t-171 -68.5t-171 68.5t-68 167.5t68 167.5t171 68.5t171 -68.5t68 -167.5zM397 224q0 85 -34 137.5t-100 52.5t-100 -52.5t-34 -137.5t34 -137.5t100 -52.5t100 52.5t34 137.5z" />
    <glyph glyph-name="p" unicode="p" horiz-adv-x="539" 
d="M135 448v-69q22 35 62.5 58t86.5 23q103 0 164.5 -67.5t61.5 -168.5q0 -106 -62.5 -171t-163.5 -65q-37 0 -73 18.5t-54 46.5v-283l53 -32v-7h-198v7l53 32v639l-53 32v7h123zM405 224q0 90 -30.5 140t-90.5 50q-52 0 -89.5 -33.5t-37.5 -85.5v-133q0 -56 37.5 -92
t89.5 -36q121 0 121 190z" />
    <glyph glyph-name="q" unicode="q" horiz-adv-x="541" 
d="M474 -229l53 -32v-8h-198v8l53 32v282q-18 -28 -54 -46.5t-73 -18.5q-101 0 -163.5 65t-62.5 171q0 101 61.5 168.5t164.5 67.5q45 0 84.5 -22t63.5 -57l64 67h7v-677zM255 34q52 0 89.5 36t37.5 92v133q0 52 -37.5 85.5t-89.5 33.5q-60 0 -90.5 -50t-30.5 -140
q0 -190 121 -190z" />
    <glyph glyph-name="r" unicode="r" horiz-adv-x="403" 
d="M210 0h-198v7l53 32v356l-53 26v7l145 41v-107q62 97 146 97q45 0 75.5 -28.5t30.5 -69.5q0 -22 -13 -35t-30 -13q-18 0 -33 14t-19 41q-7 47 -43 47q-37 0 -75.5 -54.5t-38.5 -123.5v-198l53 -32v-7z" />
    <glyph glyph-name="s" unicode="s" horiz-adv-x="406" 
d="M198 -12q-54 0 -103 19.5t-70 45.5v120h16q44 -139 157 -139q42 0 66 20.5t24 60.5q0 27 -26 43t-63 26t-73.5 22.5t-62.5 42.5t-26 77q0 66 52 100t119 34q73 0 136 -33v-112h-10q-28 99 -123 99q-34 0 -59 -18.5t-25 -56.5q0 -28 26 -45t63.5 -27t75 -22t63.5 -38.5
t26 -68.5q0 -75 -52 -112.5t-131 -37.5z" />
    <glyph glyph-name="t" unicode="t" horiz-adv-x="351" 
d="M172 395v-268q0 -41 17 -66.5t53 -25.5q55 0 89 45l18 -14q-46 -78 -121 -78q-148 0 -148 143v264l-7 7h-58v18q49 18 83.5 66.5t45.5 88.5l10 40h18v-160l7 -7h100v-46h-100z" />
    <glyph glyph-name="u" unicode="u" horiz-adv-x="541" 
d="M64 130v265l-53 26v7l145 41v-339q0 -46 17 -64.5t52 -18.5q28 0 66 22.5t63 44.5l24 23v258l-53 26v7l145 41v-430l53 -32v-7h-145v86q-12 -11 -33 -27.5t-72.5 -43.5t-87.5 -27q-66 0 -93.5 36.5t-27.5 105.5z" />
    <glyph glyph-name="v" unicode="v" horiz-adv-x="495" 
d="M483 448v-7l-52 -31l-158 -410h-48l-158 409l-54 32v7h195v-7l-43 -26l104 -269l8 -34l10 45l100 259l-42 25v7h138z" />
    <glyph glyph-name="w" unicode="w" horiz-adv-x="707" 
d="M715 448v-7l-51 -31l-143 -410h-50l-107 306l-107 -306h-49l-143 409l-54 32v7h191v-7l-41 -25l85 -241l14 -63l18 79l90 257h46l96 -273l14 -63l18 79l78 224l-42 26v7h137z" />
    <glyph glyph-name="x" unicode="x" horiz-adv-x="497" 
d="M308 0v7l35 21l-114 158l-120 -151l46 -28v-7h-150v7l53 32l143 182l-142 191l-47 29v7h172v-7l-31 -19l100 -133l98 123l-46 29v7h152v-7l-53 -32l-124 -154l162 -218l50 -30v-7h-184z" />
    <glyph glyph-name="y" unicode="y" horiz-adv-x="465" 
d="M457 448v-7l-54 -32l-226 -597q-26 -60 -47.5 -76.5t-49.5 -16.5q-22 0 -34 13.5t-12 31.5q0 35 35 44q43 10 56.5 18.5t24.5 33.5l55 150l-155 400l-52 31v7h189v-7l-42 -25l101 -261l8 -33l8 37l99 257l-41 25v7h137z" />
    <glyph glyph-name="z" unicode="z" horiz-adv-x="451" 
d="M418 100h7v-100h-400l272 402h-203l-32 -55h-7v101h369l-273 -402h235z" />
    <glyph glyph-name="braceleft" unicode="{" horiz-adv-x="500" 
d="M194 282l-24 -3l24 -3q70 -15 70 -96v-197q0 -124 111 -124v-16q-100 0 -149 23t-49 91v203q0 108 -69 108v22q69 0 69 108v203q0 68 49 91t149 23v-16q-111 0 -111 -124v-197q0 -81 -70 -96z" />
    <glyph glyph-name="bar" unicode="|" horiz-adv-x="200" 
d="M75 -269v984h50v-984h-50z" />
    <glyph glyph-name="braceright" unicode="}" horiz-adv-x="500" 
d="M330 279l-24 3q-70 15 -70 96v197q0 124 -111 124v16q100 0 149 -23t49 -91v-203q0 -108 69 -108v-22q-69 0 -69 -108v-203q0 -68 -49 -91t-149 -23v16q111 0 111 124v197q0 81 70 96z" />
    <glyph glyph-name="asciitilde" unicode="~" horiz-adv-x="567" 
d="M506 374h23q0 -7 -1.5 -19t-10.5 -42t-23.5 -52.5t-46 -41.5t-73.5 -19q-34 0 -62 14.5t-44.5 32.5t-40 32.5t-49.5 14.5q-27 0 -48.5 -10t-32.5 -24t-18.5 -28.5t-9.5 -24.5l-2 -10h-24q0 7 1.5 19t10.5 42t23.5 52.5t46.5 41.5t74 19q28 0 51 -9.5t39 -23.5t31.5 -28
t34 -23.5t40.5 -9.5q27 0 48.5 10t32.5 24.5t18.5 28.5t9.5 24z" />
    <glyph glyph-name="uni00A0" unicode="&#xa0;" horiz-adv-x="245" 
 />
    <glyph glyph-name="exclamdown" unicode="&#xa1;" horiz-adv-x="303" 
d="M119 510h42l37 -461q0 -26 -16.5 -43.5t-41.5 -17.5t-41.5 17.5t-16.5 43.5zM75 662q0 27 19 46t46 19t46 -19t19 -46q0 -26 -19 -45.5t-46 -19.5t-46 19.5t-19 45.5z" />
    <glyph glyph-name="cent" unicode="&#xa2;" 
d="M261 -97v137q-94 10 -152.5 71t-58.5 163q0 98 63 161t148 73v137h50v-136q81 -7 130 -53q33 -32 33 -63q0 -20 -13.5 -33.5t-31.5 -13.5q-38 0 -51 53q-13 55 -67 63v-378q97 6 154 94l20 -29q-21 -42 -70.5 -74.5t-103.5 -36.5v-135h-50zM155 274q0 -73 28.5 -122
t77.5 -63v372q-52 -11 -79 -63.5t-27 -123.5z" />
    <glyph glyph-name="sterling" unicode="&#xa3;" 
d="M89 347v46h85q-3 5 -22 30t-25 35t-17.5 32t-16 43t-4.5 44q0 72 51.5 111t134.5 39q118 0 168 -84q8 -13 8 -28q0 -19 -15 -32t-35 -13q-34 0 -44 36q-12 42 -31 58.5t-51 16.5q-34 0 -54 -26.5t-20 -73.5q0 -37 12 -68t33 -65.5t29 -54.5h107v-46h-95q2 -16 2 -25
q0 -72 -32 -138t-77 -107h186l98 128h7l-33 -205h-389v10q84 72 125.5 134.5t41.5 140.5q0 30 -15 62h-112z" />
    <glyph glyph-name="currency" unicode="&#xa4;" 
d="M438 -3l-48 60q-48 -37 -115 -37q-66 0 -116 37l-47 -60l-44 44l60 47q-37 49 -37 116t37 116l-61 48l44 44l47 -62q50 39 117 39t115 -38l48 61l44 -44l-61 -48q38 -51 38 -116t-38 -116l61 -47zM152 204q0 -59 33.5 -96t89.5 -37t89.5 37t33.5 96t-33.5 96.5
t-89.5 37.5t-89.5 -37.5t-33.5 -96.5z" />
    <glyph glyph-name="yen" unicode="&#xa5;" 
d="M126 308v50h112l-190 300l-68 50v7h264v-7l-68 -50l146 -231l14 -60l13 57l135 234l-68 50v7h205v-7l-68 -50l-181 -300h141v-50h-141v-55h141v-50h-141v-146l68 -50v-7h-241v7l68 50v146h-141v50h141v55h-141z" />
    <glyph glyph-name="brokenbar" unicode="&#xa6;" horiz-adv-x="200" 
d="M125 275h-50v440h50v-440zM75 171h50v-440h-50v440z" />
    <glyph glyph-name="section" unicode="&#xa7;" 
d="M94 564q0 80 52 121.5t123 41.5q132 0 179 -87q9 -21 9 -37q0 -20 -12 -32.5t-28 -12.5q-37 0 -52 48q-12 42 -34 58.5t-62 16.5q-37 0 -59.5 -25.5t-22.5 -78.5q0 -45 27.5 -81t66.5 -62t78 -53t66.5 -68t27.5 -94q0 -83 -95 -159q97 -73 97 -178q0 -80 -52 -121.5
t-123 -41.5q-132 0 -179 87q-9 21 -9 37q0 20 12 32.5t28 12.5q37 0 52 -48q12 -42 34 -58.5t62 -16.5q37 0 59.5 25.5t22.5 78.5q0 45 -27.5 81t-66.5 62t-78 53t-66.5 68t-27.5 94q0 83 94 158q-45 36 -70.5 77.5t-25.5 101.5zM363 196q0 27 -9.5 49t-31.5 43t-37.5 32
t-48.5 33q-50 -50 -50 -103q0 -27 9 -49.5t31.5 -43.5t37.5 -31.5t49 -33.5q50 54 50 104z" />
    <glyph glyph-name="guillemotleft" unicode="&#xab;" horiz-adv-x="503" 
d="M40 263l243 245v-84l-165 -170l165 -170v-84l-243 245v18zM215 263l243 245v-84l-165 -170l165 -170v-84l-243 245v18z" />
    <glyph glyph-name="paragraph" unicode="&#xb6;" horiz-adv-x="467" 
d="M370 -209v867l-7 7h-73l-7 -7v-927h-7l-65 60v481q-92 0 -156.5 64.5t-64.5 156.5t64.5 157t156.5 65h231v-984h-7z" />
    <glyph glyph-name="periodcentered" unicode="&#xb7;" horiz-adv-x="238" 
d="M47 306q0 26 19 45.5t46 19.5q26 0 45.5 -19.5t19.5 -45.5q0 -27 -19.5 -46t-45.5 -19q-27 0 -46 19t-19 46z" />
    <glyph glyph-name="guillemotright" unicode="&#xbb;" horiz-adv-x="503" 
d="M220 508l243 -245v-18l-243 -245v84l165 170l-165 170v84zM45 508l243 -245v-18l-243 -245v84l165 170l-165 170v84z" />
    <glyph glyph-name="questiondown" unicode="&#xbf;" horiz-adv-x="558" 
d="M240 521h41v-65q0 -41 -14 -72.5t-34.5 -53l-41 -43t-34.5 -54t-14 -75.5q0 -57 32 -90.5t84 -33.5q59 0 85.5 32t44.5 102q10 40 52 40q21 0 36.5 -13t15.5 -36q0 -18 -12 -42q-65 -129 -222 -129q-98 0 -158.5 44.5t-60.5 121.5q0 53 23.5 95.5t90.5 93.5
q55 42 70.5 78.5t15.5 99.5zM326 662q0 -26 -19 -45.5t-46 -19.5t-46 19.5t-19 45.5q0 27 19 46t46 19t46 -19t19 -46z" />
    <glyph glyph-name="multiply" unicode="&#xd7;" horiz-adv-x="510" 
d="M391 470l36 -36l-137 -136l138 -137l-36 -36l-137 138l-136 -137l-36 36l137 136l-137 136l36 36l136 -137z" />
    <glyph glyph-name="germandbls" unicode="&#xdf;" horiz-adv-x="568" 
d="M80 39v356l-7 7h-57v46h57l7 7v66q0 98 51 152t142 54q87 0 133 -37.5t46 -101.5q0 -32 -12.5 -59.5t-30 -45.5t-34.5 -33.5t-29.5 -33t-12.5 -35.5q0 -24 21.5 -43t52.5 -34.5t62 -34.5t52.5 -52t21.5 -78q0 -68 -39.5 -109.5t-117.5 -41.5q-40 0 -80 20t-62 50v132h11
q38 -156 127 -156q74 0 74 91q0 31 -19 55t-46 40.5t-53.5 34t-45.5 45.5t-19 64q0 37 14.5 67.5t32.5 48.5t32.5 44.5t14.5 55.5q0 101 -94 101q-101 0 -101 -133v-509l68 -32v-7h-228v7z" />
    <glyph glyph-name="endash" unicode="&#x2013;" horiz-adv-x="512" 
d="M0 291v50h512v-50h-512z" />
    <glyph glyph-name="emdash" unicode="&#x2014;" horiz-adv-x="821" 
d="M0 291v50h821v-50h-821z" />
    <glyph glyph-name="quoteleft" unicode="&#x2018;" horiz-adv-x="308" 
d="M238 515q0 -24 -17 -38.5t-40 -14.5q-73 0 -73 92q0 97 102 161l10 -16q-60 -47 -60 -76q0 -10 7 -19.5t13 -14t18 -12.5q40 -26 40 -62z" />
    <glyph glyph-name="quoteright" unicode="&#x2019;" horiz-adv-x="308" 
d="M70 662q0 24 17 38.5t40 14.5q73 0 73 -92q0 -97 -102 -161l-10 16q60 47 60 76q0 10 -7 19.5t-13 14t-18 12.5q-40 26 -40 62z" />
    <glyph glyph-name="quotesinglbase" unicode="&#x201a;" horiz-adv-x="308" 
d="M70 62q0 24 17 38.5t40 14.5q73 0 73 -92q0 -97 -102 -161l-10 16q60 47 60 76q0 10 -7 19.5t-13 14t-18 12.5q-40 26 -40 62z" />
    <glyph glyph-name="quotedblleft" unicode="&#x201c;" horiz-adv-x="473" 
d="M403 515q0 -24 -17 -38.5t-40 -14.5q-73 0 -73 92q0 97 102 161l10 -16q-60 -47 -60 -76q0 -10 7 -19.5t13 -14t18 -12.5q40 -26 40 -62zM238 515q0 -24 -17 -38.5t-40 -14.5q-73 0 -73 92q0 97 102 161l10 -16q-60 -47 -60 -76q0 -10 7 -19.5t13 -14t18 -12.5
q40 -26 40 -62z" />
    <glyph glyph-name="quotedblright" unicode="&#x201d;" horiz-adv-x="473" 
d="M70 662q0 24 17 38.5t40 14.5q73 0 73 -92q0 -97 -102 -161l-10 16q60 47 60 76q0 10 -7 19.5t-13 14t-18 12.5q-40 26 -40 62zM235 662q0 24 17 38.5t40 14.5q73 0 73 -92q0 -97 -102 -161l-10 16q60 47 60 76q0 10 -7 19.5t-13 14t-18 12.5q-40 26 -40 62z" />
    <glyph glyph-name="quotedblbase" unicode="&#x201e;" horiz-adv-x="473" 
d="M70 62q0 24 17 38.5t40 14.5q73 0 73 -92q0 -97 -102 -161l-10 16q60 47 60 76q0 10 -7 19.5t-13 14t-18 12.5q-40 26 -40 62zM235 62q0 24 17 38.5t40 14.5q73 0 73 -92q0 -97 -102 -161l-10 16q60 47 60 76q0 10 -7 19.5t-13 14t-18 12.5q-40 26 -40 62z" />
    <glyph glyph-name="bullet" unicode="&#x2022;" horiz-adv-x="276" 
d="M40 300q0 40 29 69t69 29t69 -29t29 -69t-29 -69t-69 -29t-69 29t-29 69z" />
    <glyph glyph-name="ellipsis" unicode="&#x2026;" horiz-adv-x="678" 
d="M47 53q0 26 19 45.5t46 19.5q26 0 45.5 -19.5t19.5 -45.5q0 -27 -19.5 -46t-45.5 -19q-27 0 -46 19t-19 46zM267 53q0 26 19 45.5t46 19.5q26 0 45.5 -19.5t19.5 -45.5q0 -27 -19.5 -46t-45.5 -19q-27 0 -46 19t-19 46zM487 53q0 26 19 45.5t46 19.5q26 0 45.5 -19.5
t19.5 -45.5q0 -27 -19.5 -46t-45.5 -19q-27 0 -46 19t-19 46z" />
    <glyph glyph-name="perthousand" unicode="&#x2030;" horiz-adv-x="850" 
d="M52 23l402 692l40 -23l-402 -692zM262 582q0 -58 -36 -98t-90 -40t-90 40t-36 98t36 98t90 40t90 -40t36 -98zM204 582q0 109 -68 109q-67 0 -67 -109t67 -109q68 0 68 109zM537 133q0 -58 -36 -98t-90 -40t-90 40t-36 98t36 98t90 40t90 -40t36 -98zM479 133
q0 109 -68 109q-67 0 -67 -109t67 -109q68 0 68 109zM839 133q0 -58 -36 -98t-90 -40t-90 40t-36 98t36 98t90 40t90 -40t36 -98zM781 133q0 109 -68 109q-67 0 -67 -109t67 -109q68 0 68 109z" />
    <glyph glyph-name="guilsinglleft" unicode="&#x2039;" horiz-adv-x="328" 
d="M40 263l243 245v-84l-165 -170l165 -170v-84l-243 245v18z" />
    <glyph glyph-name="guilsinglright" unicode="&#x203a;" horiz-adv-x="328" 
d="M45 508l243 -245v-18l-243 -245v84l165 170l-165 170v84z" />
    <glyph glyph-name="Euro" unicode="&#x20ac;" 
d="M-9 395l17 52h74q19 131 89 205.5t173 74.5q105 0 171 -64v-124h-14q-46 138 -157 138q-69 0 -110 -60.5t-53 -169.5h225l-17 -52h-211q-1 -12 -1 -37t1 -36h189l-17 -52h-169q13 -108 56 -170t107 -62q70 0 112.5 39.5t84.5 124.5l19 -11q-34 -97 -82.5 -150t-133.5 -53
q-104 0 -174 75t-88 207h-91l17 52h69q-1 12 -1 36q0 25 1 37h-86z" />
    <glyph glyph-name="minus" unicode="&#x2212;" horiz-adv-x="510" 
d="M81 289v50h348v-50h-348z" />
    <glyph glyph-name="apple" unicode="&#xf8ff;" horiz-adv-x="692" 
d="M642 617v-595q0 -9 -6.5 -15.5t-15.5 -6.5q-3 0 -7 1l-267 77l-267 -77q-4 -1 -7 -1q-9 0 -15.5 6.5t-6.5 15.5v595q0 17 16 22l270 78q6 2 10 2t10 -2l270 -78q16 -5 16 -22zM324 366v303l-230 -67q6 -94 71.5 -161t158.5 -75zM368 669v-303q93 8 158.5 75t71.5 161z
M93 463v-412l231 67v204q-73 6 -134 43.5t-97 97.5zM599 51v412q-37 -60 -97.5 -97.5t-133.5 -43.5v-204z" />
    <glyph glyph-name="fi" unicode="&#xfb01;" horiz-adv-x="559" 
d="M176 527v-72l7 -7h298v-409l53 -32v-7h-198v7l53 32v356l-7 7h-199l-7 -7v-356l53 -32v-7h-198v7l53 32v356l-7 7h-57v46h57l7 7v72q0 89 48.5 144.5t140.5 55.5q122 0 166 -80q10 -19 10 -36q0 -20 -13 -33t-30 -13q-39 0 -48 54q-11 62 -85 62q-97 0 -97 -154z" />
    <glyph glyph-name="fl" unicode="&#xfb02;" horiz-adv-x="558" 
d="M176 509v-54l7 -7h100v-46h-100l-7 -7v-356l53 -32v-7h-198v7l53 32v356l-7 7h-57v46h57l7 7v54q0 105 49.5 155.5t169.5 50.5h178v-676l53 -32v-7h-198v7l53 32v625l-5 5h-81q-62 0 -94.5 -35t-32.5 -125z" />
    </font>
</defs>
</svg>
