<?xml version="1.0" standalone="no"?>
<!DOCTYPE svg PUBLIC "-//W3C//DTD SVG 1.1//EN" "http://www.w3.org/Graphics/SVG/1.1/DTD/svg11.dtd" >
<svg xmlns="http://www.w3.org/2000/svg" xmlns:xlink="http://www.w3.org/1999/xlink" version="1.1">
<metadata>
Created by FontForge 20170731 at Wed Mar  1 18:28:46 2017
 By Aleksey,,,
Copyright (c) 2010 by Colophon Foundry. All rights reserved.
</metadata>
<defs>
<font id="TranscriptTrial-Bold" horiz-adv-x="234" >
  <font-face 
    font-family="Transcript Trial"
    font-weight="700"
    font-stretch="normal"
    units-per-em="1000"
    panose-1="2 0 5 6 0 0 0 2 0 4"
    ascent="800"
    descent="-200"
    x-height="492"
    cap-height="700"
    bbox="-44 -218 1100 780"
    underline-thickness="50"
    underline-position="-200"
    unicode-range="U+000D-FB02"
  />
<missing-glyph horiz-adv-x="512" 
d="M457 0h-402v700h402v-700zM167 604v-508h178v508h-178z" />
    <glyph glyph-name=".notdef" horiz-adv-x="512" 
d="M457 0h-402v700h402v-700zM167 604v-508h178v508h-178z" />
    <glyph glyph-name=".null" horiz-adv-x="0" 
 />
    <glyph glyph-name="nonmarkingreturn" horiz-adv-x="333" 
 />
    <glyph glyph-name="CR" unicode="&#xd;" horiz-adv-x="0" 
 />
    <glyph glyph-name="space" unicode=" " horiz-adv-x="230" 
 />
    <glyph glyph-name="exclam" unicode="!" horiz-adv-x="252" 
d="M50 617v83h152v-83l-30 -393h-92zM50 152h152v-152h-152v152z" />
    <glyph glyph-name="quotedbl" unicode="&#x22;" horiz-adv-x="366" 
d="M34 642v68h128v-68l-26 -184h-76zM204 642v68h128v-68l-26 -184h-76z" />
    <glyph glyph-name="numbersign" unicode="#" horiz-adv-x="753" 
d="M405 166h-135l-35 -166h-132l35 166h-101v126h127l25 116h-132v126h159l35 166h132l-35 -166h135l35 166h132l-35 -166h101v-126h-128l-25 -116h133v-126h-159l-35 -166h-132zM296 292h135l25 116h-135z" />
    <glyph glyph-name="dollar" unicode="$" horiz-adv-x="512" 
d="M213 -8q-183 19 -200 233h140q7 -80 60 -102v177q-101 30 -141.5 77t-40.5 130q0 82 53 136t129 64v63h80v-64q82 -12 129.5 -66.5t51.5 -152.5h-131q-4 64 -50 87v-160l16 -5q102 -33 141 -73.5t39 -128.5q0 -94 -52.5 -149.5t-143.5 -65.5v-62h-80v62zM167 510
q0 -44 46 -66v134q-46 -16 -46 -68zM347 195q0 27 -12 44.5t-42 32.5v-150q54 18 54 73z" />
    <glyph glyph-name="percent" unicode="%" horiz-adv-x="770" 
d="M28 536q0 77 45.5 125.5t110.5 48.5t110.5 -48.5t45.5 -125.5t-45.5 -125.5t-110.5 -48.5t-110.5 48.5t-45.5 125.5zM520 700l97 -55l-366 -645l-97 55zM127 536q0 -42 16.5 -65t40.5 -23t40.5 23t16.5 65t-16.5 65t-40.5 23t-40.5 -23t-16.5 -65zM430 164
q0 77 45.5 125.5t110.5 48.5t110.5 -48.5t45.5 -125.5t-45.5 -125.5t-110.5 -48.5t-110.5 48.5t-45.5 125.5zM529 164q0 -42 16.5 -65t40.5 -23t40.5 23t16.5 65t-16.5 65t-40.5 23t-40.5 -23t-16.5 -65z" />
    <glyph glyph-name="ampersand" unicode="&#x26;" horiz-adv-x="633" 
d="M431 61q-82 -71 -187 -71q-99 0 -156.5 54t-57.5 146q0 131 128 204l-3 4q-46 62 -46 138q0 66 49.5 120t143.5 54q82 0 134 -43.5t52 -126.5q0 -124 -146 -182l90 -122q27 43 64 121h118q-52 -133 -111 -217l104 -140h-126zM238 538q0 -44 41 -96q93 35 93 96
q0 31 -19.5 48t-50.5 17q-26 0 -45 -16t-19 -49zM259 108q57 0 102 38l-132 161q-66 -40 -66 -103q0 -45 28 -70.5t68 -25.5z" />
    <glyph glyph-name="quotesingle" unicode="'" horiz-adv-x="196" 
d="M34 642v68h128v-68l-26 -184h-76z" />
    <glyph glyph-name="parenleft" unicode="(" horiz-adv-x="339" 
d="M211 -170q-73 73 -120 194t-47 281t47 281t120 194h105q-74 -106 -107 -215t-33 -260t33 -260t107 -215h-105z" />
    <glyph glyph-name="parenright" unicode=")" horiz-adv-x="339" 
d="M23 -170q74 106 107 215t33 260t-33 260t-107 215h105q73 -73 120 -194t47 -281t-47 -281t-120 -194h-105z" />
    <glyph glyph-name="asterisk" unicode="*" horiz-adv-x="463" 
d="M268 700l13 -130l128 28l22 -69l-119 -52l66 -113l-58 -43l-87 96l-87 -97l-59 42l66 112l-121 54l22 69l128 -29l14 132h72z" />
    <glyph glyph-name="plus" unicode="+" horiz-adv-x="529" 
d="M327 532v-156h157v-126h-157v-157h-126v157h-156v126h156v156h126z" />
    <glyph glyph-name="comma" unicode="," 
d="M44 152h152v-152l-72 -156h-64l37 156h-53v152z" />
    <glyph glyph-name="hyphen" unicode="-" horiz-adv-x="509" 
d="M45 404h419v-126h-419v126z" />
    <glyph glyph-name="period" unicode="." 
d="M44 152h152v-152h-152v152z" />
    <glyph glyph-name="slash" unicode="/" horiz-adv-x="469" 
d="M327 740h145l-310 -780h-145z" />
    <glyph glyph-name="zero" unicode="0" horiz-adv-x="546" 
d="M273 710q105 0 171 -97.5t66 -262.5t-66 -262.5t-171 -97.5t-171 97.5t-66 262.5t66 262.5t171 97.5zM368 350q0 117 -27 175.5t-68 58.5t-68 -58.5t-27 -175.5t27 -175.5t68 -58.5t68 58.5t27 175.5z" />
    <glyph glyph-name="one" unicode="1" horiz-adv-x="355" 
d="M172 700h142v-700h-142v512l-94 -51l-59 67z" />
    <glyph glyph-name="two" unicode="2" horiz-adv-x="513" 
d="M39 77q0 93 38.5 151.5t122.5 112.5q78 50 109 84.5t31 73.5q0 42 -21 63.5t-57 21.5q-39 0 -61.5 -27.5t-27.5 -76.5h-135q2 109 63 169.5t157 60.5q106 0 162 -58t56 -154q0 -72 -32.5 -117t-117.5 -105q-39 -27 -57.5 -41t-41 -34.5t-31.5 -38t-9 -36.5h294v-126h-442
v77z" />
    <glyph glyph-name="three" unicode="3" horiz-adv-x="513" 
d="M187 428h43q90 0 90 87q0 77 -69 77t-76 -84h-126q4 96 59 149t143 53q98 0 149 -48.5t51 -132.5q0 -100 -88 -148q51 -19 80.5 -62.5t29.5 -103.5q0 -115 -59.5 -170t-162.5 -55q-104 0 -163 59t-61 170h131q10 -103 93 -103q43 0 64.5 29.5t21.5 77.5q0 87 -89 87h-61
v118z" />
    <glyph glyph-name="four" unicode="4" horiz-adv-x="537" 
d="M38 219l242 481h163v-454h63v-126h-63v-120h-142v120h-263v99zM203 246h98v266z" />
    <glyph glyph-name="five" unicode="5" horiz-adv-x="530" 
d="M89 700h354v-126h-246l-25 -156q54 45 135 45q178 0 178 -233q0 -118 -59.5 -179t-168.5 -61q-106 0 -159.5 63t-62.5 164h142q3 -48 26 -74.5t56 -26.5q84 0 84 123q0 117 -79 117q-30 0 -55.5 -13.5t-36.5 -26.5l-10 -14h-118z" />
    <glyph glyph-name="six" unicode="6" horiz-adv-x="539" 
d="M38 306q0 111 19.5 192.5t54.5 126t75.5 65t88.5 20.5q91 0 146 -49t60 -146h-130q-4 35 -23.5 52t-46.5 17q-94 0 -110 -180q22 22 58.5 37t73.5 15q89 0 141 -58.5t52 -167.5q0 -108 -61 -174t-167 -66q-108 0 -169.5 81t-61.5 235zM276 349q-86 0 -86 -119
q0 -54 22 -84t59 -30q84 0 84 114q0 57 -20 88t-59 31z" />
    <glyph glyph-name="seven" unicode="7" horiz-adv-x="452" 
d="M34 700h397v-109l-219 -591h-121l182 574h-239v126z" />
    <glyph glyph-name="eight" unicode="8" horiz-adv-x="528" 
d="M264 710q93 0 150 -56t57 -141t-66 -137q36 -21 60 -66.5t24 -99.5q0 -95 -62 -157.5t-163 -62.5t-163 62.5t-62 157.5q0 54 24 99.5t60 66.5q-66 52 -66 137t57 141t150 56zM331 507q0 36 -18 56.5t-49 20.5t-49 -20.5t-18 -56.5q0 -35 17.5 -56t49.5 -21t49.5 21
t17.5 56zM347 210q0 45 -22 69.5t-61 24.5t-61 -24.5t-22 -69.5q0 -43 22.5 -68.5t60.5 -25.5t60.5 25.5t22.5 68.5z" />
    <glyph glyph-name="nine" unicode="9" horiz-adv-x="539" 
d="M501 394q0 -111 -19.5 -192.5t-54.5 -126t-75.5 -65t-88.5 -20.5q-91 0 -146 49t-60 146h130q4 -35 23.5 -52t46.5 -17q94 0 110 180q-22 -22 -58.5 -37t-73.5 -15q-89 0 -141 58.5t-52 167.5q0 108 61 174t167 66q108 0 169.5 -81t61.5 -235zM263 351q86 0 86 119
q0 54 -22 84t-59 30q-84 0 -84 -114q0 -57 20 -88t59 -31z" />
    <glyph glyph-name="colon" unicode=":" 
d="M44 492h152v-152h-152v152zM44 152h152v-152h-152v152z" />
    <glyph glyph-name="semicolon" unicode=";" 
d="M44 492h152v-152h-152v152zM44 152h152v-152l-72 -156h-64l37 156h-53v152z" />
    <glyph glyph-name="less" unicode="&#x3c;" horiz-adv-x="443" 
d="M36 346l365 214v-152l-233 -115l233 -115v-152l-365 214v106z" />
    <glyph glyph-name="equal" unicode="=" horiz-adv-x="532" 
d="M45 476h442v-126h-442v126zM45 246h442v-126h-442v126z" />
    <glyph glyph-name="greater" unicode="&#x3e;" horiz-adv-x="443" 
d="M407 240l-365 -214v152l233 115l-233 115v152l365 -214v-106z" />
    <glyph glyph-name="question" unicode="?" horiz-adv-x="460" 
d="M35 524q0 76 53.5 131t142.5 55q96 0 150 -49.5t54 -136.5q0 -124 -142 -193l-30 -107h-92l-30 156q142 27 142 144q0 77 -52 77q-27 0 -41.5 -23.5t-14.5 -53.5h-140zM141 152h152v-152h-152v152z" />
    <glyph glyph-name="at" unicode="@" horiz-adv-x="896" 
d="M241 284q0 102 46 160t118 58q62 0 105 -38v29h116v-229q0 -41 13.5 -69t40.5 -28q32 0 46.5 33t14.5 118q0 289 -272 289q-128 0 -216.5 -82t-88.5 -234q0 -171 83.5 -256.5t225.5 -85.5q95 0 155 21.5t144 79.5l53 -84q-86 -66 -171.5 -93t-193.5 -27q-82 0 -155.5 28
t-132 81t-93.5 139.5t-35 194.5q0 184 120 302.5t302 118.5q172 0 279 -102.5t107 -273.5q0 -140 -49 -204t-127 -64q-40 0 -74.5 23.5t-51.5 64.5q-43 -88 -145 -88q-72 0 -118 58t-46 160zM360 284q0 -56 22 -86t56 -30q33 0 55 30t22 86t-22 86t-55 30q-34 0 -56 -30
t-22 -86z" />
    <glyph glyph-name="A" unicode="A" horiz-adv-x="606" 
d="M225 700h156l217 -700h-157l-37 150h-202l-37 -150h-157zM233 276h140l-70 280z" />
    <glyph glyph-name="B" unicode="B" horiz-adv-x="547" 
d="M55 700h218q97 0 154.5 -46.5t57.5 -134.5q0 -116 -90 -150q58 -21 90.5 -63t32.5 -102q0 -99 -55 -151.5t-158 -52.5h-250v700zM197 430h79q36 0 55.5 19t19.5 51q0 74 -75 74h-79v-144zM197 126h86q93 0 93 86q0 92 -93 92h-86v-178z" />
    <glyph glyph-name="C" unicode="C" horiz-adv-x="578" 
d="M546 236q-15 -128 -82 -187t-164 -59q-110 0 -186 95t-76 265t76 265t186 95q97 0 164 -59t82 -187h-139q-15 120 -105 120q-55 0 -88.5 -60t-33.5 -174t33.5 -174t88.5 -60q90 0 105 120h139z" />
    <glyph glyph-name="D" unicode="D" horiz-adv-x="558" 
d="M55 700h176q130 0 209.5 -87.5t79.5 -262.5t-79.5 -262.5t-209.5 -87.5h-176v700zM197 126h48q60 0 96.5 54t36.5 170t-36.5 170t-96.5 54h-48v-448z" />
    <glyph glyph-name="E" unicode="E" horiz-adv-x="497" 
d="M55 700h408v-126h-266v-144h173v-126h-173v-178h266v-126h-408v700z" />
    <glyph glyph-name="F" unicode="F" horiz-adv-x="502" 
d="M55 700h414v-126h-272v-150h179v-126h-179v-298h-142v700z" />
    <glyph glyph-name="G" unicode="G" horiz-adv-x="600" 
d="M466 80q-50 -90 -160 -90q-50 0 -96 20.5t-85.5 61.5t-63 113t-23.5 165q0 169 77 264.5t191 95.5q101 0 171.5 -61.5t80.5 -184.5h-132q-20 120 -118 120q-55 0 -91.5 -64t-36.5 -170q0 -109 36.5 -171.5t93.5 -62.5q47 0 78 33t35 93h-93v113h225v-355h-66z" />
    <glyph glyph-name="H" unicode="H" horiz-adv-x="587" 
d="M532 0h-142v304h-193v-304h-142v700h142v-270h193v270h142v-700z" />
    <glyph glyph-name="I" unicode="I" horiz-adv-x="252" 
d="M55 700h142v-700h-142v700z" />
    <glyph glyph-name="J" unicode="J" horiz-adv-x="521" 
d="M466 244q0 -114 -54.5 -184t-165.5 -70q-103 0 -164 63.5t-68 171.5h142q10 -109 90 -109q42 0 60 28.5t18 88.5v467h142v-456z" />
    <glyph glyph-name="K" unicode="K" horiz-adv-x="580" 
d="M259 314l-62 -85v-229h-142v700h142v-264l182 264h162l-178 -244l211 -456h-123z" />
    <glyph glyph-name="L" unicode="L" horiz-adv-x="460" 
d="M55 700h142v-574h247v-126h-389v700z" />
    <glyph glyph-name="M" unicode="M" horiz-adv-x="712" 
d="M197 429v-429h-142v700h177l124 -348l124 348h177v-700h-142v429l-106 -229h-106z" />
    <glyph glyph-name="N" unicode="N" horiz-adv-x="596" 
d="M197 385v-385h-142v700h152l192 -386v386h142v-700h-118z" />
    <glyph glyph-name="O" unicode="O" horiz-adv-x="586" 
d="M293 710q115 0 185 -94t70 -266t-70 -266t-185 -94t-185 94t-70 266t70 266t185 94zM406 350q0 118 -30.5 176t-82.5 58t-82.5 -58t-30.5 -176t30.5 -176t82.5 -58t82.5 58t30.5 176z" />
    <glyph glyph-name="P" unicode="P" horiz-adv-x="555" 
d="M197 0h-142v700h247q103 0 162.5 -52t59.5 -154t-59.5 -154t-162.5 -52h-105v-288zM197 414h96q85 0 85 80t-85 80h-96v-160z" />
    <glyph glyph-name="Q" unicode="Q" horiz-adv-x="586" 
d="M238 -4q-92 21 -146 112.5t-54 241.5q0 172 70 266t185 94t185 -94t70 -266q0 -150 -54 -241.5t-146 -112.5l6 -109h-122zM406 350q0 118 -30.5 176t-82.5 58t-82.5 -58t-30.5 -176q0 -172 65 -219l7 117h82l7 -117q65 47 65 219z" />
    <glyph glyph-name="R" unicode="R" horiz-adv-x="560" 
d="M197 0h-142v700h244q98 0 155 -52t57 -146q0 -129 -97 -181l138 -321h-124l-171 304h-60v-304zM197 430h102q73 0 73 72t-73 72h-102v-144z" />
    <glyph glyph-name="S" unicode="S" horiz-adv-x="503" 
d="M253 116q38 0 61.5 22t23.5 57q0 37 -24.5 59.5t-98.5 47.5q-98 33 -144 79t-46 126q0 92 64.5 147.5t151.5 55.5q101 0 162 -56t65 -167h-131q-3 51 -31 74t-65 23t-58.5 -18t-21.5 -51q0 -34 34.5 -56t118.5 -55q92 -36 129 -77t37 -120q0 -92 -64.5 -154.5
t-166.5 -62.5q-100 0 -163.5 58.5t-72.5 176.5h142q9 -109 98 -109z" />
    <glyph glyph-name="T" unicode="T" horiz-adv-x="496" 
d="M15 700h466v-126h-162v-574h-142v574h-162v126z" />
    <glyph glyph-name="U" unicode="U" horiz-adv-x="578" 
d="M387 700h142v-434q0 -276 -240 -276t-240 276v434h142v-453q0 -131 98 -131t98 131v453z" />
    <glyph glyph-name="V" unicode="V" horiz-adv-x="598" 
d="M380 0h-162l-209 700h159l131 -506l131 506h159z" />
    <glyph glyph-name="W" unicode="W" horiz-adv-x="898" 
d="M449 461l-94 -461h-152l-190 700h152l105 -469l123 469h112l123 -469l105 469h152l-190 -700h-152z" />
    <glyph glyph-name="X" unicode="X" horiz-adv-x="588" 
d="M374 377l206 -377h-172l-114 255l-114 -255h-172l206 377l-183 323h173l90 -205l90 205h173z" />
    <glyph glyph-name="Y" unicode="Y" horiz-adv-x="562" 
d="M168 700l113 -301l113 301h158l-200 -426v-274h-142v274l-200 426h158z" />
    <glyph glyph-name="Z" unicode="Z" horiz-adv-x="531" 
d="M46 700h442v-107l-291 -467h304v-126h-475v119l311 455h-291v126z" />
    <glyph glyph-name="bracketleft" unicode="[" horiz-adv-x="371" 
d="M55 780h282v-126h-140v-608h140v-126h-282v860z" />
    <glyph glyph-name="backslash" unicode="\" horiz-adv-x="469" 
d="M452 -40h-145l-310 780h145z" />
    <glyph glyph-name="bracketright" unicode="]" horiz-adv-x="371" 
d="M316 -80h-282v126h140v608h-140v126h282v-860z" />
    <glyph glyph-name="asciicircum" unicode="^" horiz-adv-x="564" 
d="M333 700l196 -322h-152l-95 202l-95 -202h-152l196 322h102z" />
    <glyph glyph-name="underscore" unicode="_" horiz-adv-x="496" 
d="M27 0h442v-126h-442v126z" />
    <glyph glyph-name="a" unicode="a" horiz-adv-x="497" 
d="M305 308q0 74 -66 74q-25 0 -42.5 -15t-22.5 -39h-128q4 80 61.5 127t139.5 47q91 0 142.5 -53t51.5 -148v-235q0 -36 15 -66h-125l-26 52q-33 -34 -64 -48t-75 -14q-59 0 -97.5 38t-38.5 99q0 173 275 173v8zM170 140q0 -41 45 -41q37 0 63.5 26.5t26.5 67.5v11
q-135 -5 -135 -64z" />
    <glyph glyph-name="b" unicode="b" horiz-adv-x="534" 
d="M500 246q0 -120 -54 -188t-139 -68q-80 0 -123 54v-44h-136v700h136v-243q51 45 123 45q85 0 139 -68t54 -188zM360 246q0 66 -26 101t-65 35t-65 -35t-26 -101t26 -101t65 -35t65 35t26 101z" />
    <glyph glyph-name="c" unicode="c" horiz-adv-x="505" 
d="M475 186q-16 -94 -72.5 -145t-142.5 -51q-96 0 -161 71t-65 185t65 185t161 71q86 0 142.5 -51t72.5 -145h-134q-19 76 -81 76q-36 0 -61 -35t-25 -101t25 -101t61 -35q62 0 81 76h134z" />
    <glyph glyph-name="d" unicode="d" horiz-adv-x="534" 
d="M34 246q0 120 54 188t139 68q72 0 123 -45v243h136v-700h-136v44q-43 -54 -123 -54q-85 0 -139 68t-54 188zM174 246q0 -66 26 -101t65 -35t65 35t26 101t-26 101t-65 35t-65 -35t-26 -101z" />
    <glyph glyph-name="e" unicode="e" horiz-adv-x="519" 
d="M484 163q-23 -83 -78.5 -128t-139.5 -45q-102 0 -167 68.5t-65 187.5q0 113 67.5 184.5t164.5 71.5q98 0 160 -67t62 -188v-35h-314q2 -49 28.5 -75.5t67.5 -26.5q58 0 84 53h130zM266 382q-60 0 -84 -74h171q-19 74 -87 74z" />
    <glyph glyph-name="f" unicode="f" horiz-adv-x="351" 
d="M12 492h70v61q0 79 46 118t120 39q40 0 100 -15v-126q-33 10 -68 10q-62 0 -62 -70v-17h103v-120h-103v-372h-136v372h-70v120z" />
    <glyph glyph-name="g" unicode="g" horiz-adv-x="531" 
d="M486 22q0 -123 -58 -181.5t-162 -58.5q-92 0 -149 47t-72 128h135q27 -55 87 -55q41 0 62 26t21 68v51q-56 -47 -123 -47q-85 0 -139 66t-54 185t54 185t139 66q80 0 123 -54v44h136v-470zM174 251q0 -66 25.5 -98.5t65.5 -32.5t65.5 32.5t25.5 98.5t-25.5 98.5
t-65.5 32.5t-65.5 -32.5t-25.5 -98.5z" />
    <glyph glyph-name="h" unicode="h" horiz-adv-x="521" 
d="M48 700h136v-256q50 58 137 58q155 0 155 -166v-336h-136v297q0 45 -16 65t-50 20q-38 0 -64 -32.5t-26 -87.5v-262h-136v700z" />
    <glyph glyph-name="i" unicode="i" horiz-adv-x="236" 
d="M44 700h148v-136h-148v136zM50 492h136v-492h-136v492z" />
    <glyph glyph-name="j" unicode="j" horiz-adv-x="236" 
d="M44 700h148v-136h-148v136zM-44 -128q94 74 94 197v423h136v-418q0 -60 -11.5 -106t-36 -80t-50 -56.5t-66.5 -49.5z" />
    <glyph glyph-name="k" unicode="k" horiz-adv-x="496" 
d="M243 213l-59 -74v-139h-136v700h136v-380l134 172h147l-128 -161l145 -331h-123z" />
    <glyph glyph-name="l" unicode="l" horiz-adv-x="232" 
d="M48 700h136v-700h-136v700z" />
    <glyph glyph-name="m" unicode="m" horiz-adv-x="719" 
d="M429 0h-136v330q0 52 -48 52q-61 0 -61 -105v-277h-136v492h136v-51q41 61 118 61q94 0 119 -73q18 34 52.5 53.5t73.5 19.5q62 0 94.5 -32.5t32.5 -93.5v-376h-136v330q0 52 -48 52q-61 0 -61 -115v-267z" />
    <glyph glyph-name="n" unicode="n" horiz-adv-x="502" 
d="M48 492h136v-57q21 30 55.5 48.5t70.5 18.5q147 0 147 -158v-344h-136v302q0 41 -15 60.5t-48 19.5q-34 0 -54 -27t-20 -71v-284h-136v492z" />
    <glyph glyph-name="o" unicode="o" horiz-adv-x="518" 
d="M484 246q0 -113 -66 -184.5t-159 -71.5t-159 71.5t-66 184.5t66 184.5t159 71.5t159 -71.5t66 -184.5zM344 246q0 66 -24.5 101t-60.5 35t-60.5 -35t-24.5 -101t24.5 -101t60.5 -35t60.5 35t24.5 101z" />
    <glyph glyph-name="p" unicode="p" horiz-adv-x="534" 
d="M500 246q0 -120 -54 -188t-139 -68q-72 0 -123 45v-243h-136v700h136v-44q43 54 123 54q85 0 139 -68t54 -188zM360 246q0 66 -26 101t-65 35t-65 -35t-26 -101t26 -101t65 -35t65 35t26 101z" />
    <glyph glyph-name="q" unicode="q" horiz-adv-x="534" 
d="M34 246q0 120 54 188t139 68q80 0 123 -54v44h136v-700h-136v243q-51 -45 -123 -45q-85 0 -139 68t-54 188zM174 246q0 -66 26 -101t65 -35t65 35t26 101t-26 101t-65 35t-65 -35t-26 -101z" />
    <glyph glyph-name="r" unicode="r" horiz-adv-x="384" 
d="M368 365q-21 17 -59 17q-56 0 -90.5 -43t-34.5 -135v-204h-136v492h136v-63q20 33 53.5 53t72.5 20q33 0 58 -13v-124z" />
    <glyph glyph-name="s" unicode="s" horiz-adv-x="460" 
d="M159 168q13 -58 75 -58q64 0 64 49q0 11 -7.5 18t-22 11.5t-29.5 7t-38 6.5t-39 8q-122 30 -122 132q0 73 53.5 116.5t129.5 43.5q83 0 132.5 -41t57.5 -123h-125q-16 44 -65 44q-21 0 -35.5 -10t-14.5 -29q0 -14 8.5 -23.5t26 -15t34.5 -8.5t43 -7t44 -9
q103 -27 103 -119q0 -77 -56 -124t-144 -47q-83 0 -141 47t-65 131h133z" />
    <glyph glyph-name="t" unicode="t" horiz-adv-x="355" 
d="M11 492h74l54 158h82v-158h109v-120h-109v-208q0 -54 49 -54q29 0 60 8v-112q-46 -16 -102 -16q-66 0 -104.5 37.5t-38.5 113.5v231h-74v120z" />
    <glyph glyph-name="u" unicode="u" horiz-adv-x="502" 
d="M454 0h-136v57q-22 -30 -56.5 -48.5t-69.5 -18.5q-147 0 -147 158v344h136v-302q0 -41 15 -60.5t48 -19.5t53.5 27t20.5 70v285h136v-492z" />
    <glyph glyph-name="v" unicode="v" horiz-adv-x="500" 
d="M318 0h-136l-174 492h147l95 -335l95 335h147z" />
    <glyph glyph-name="w" unicode="w" horiz-adv-x="740" 
d="M577 0h-136l-71 314l-71 -314h-136l-154 492h147l68 -305l87 305h117l88 -305l68 305h147z" />
    <glyph glyph-name="x" unicode="x" horiz-adv-x="494" 
d="M247 365l67 127h152l-149 -219l168 -273h-140l-98 164l-98 -164h-140l168 273l-149 219h152z" />
    <glyph glyph-name="y" unicode="y" horiz-adv-x="500" 
d="M187 0l-179 492h147l90 -334l100 334h147l-257 -700h-112z" />
    <glyph glyph-name="z" unicode="z" horiz-adv-x="452" 
d="M41 492h356v-107l-188 -265h211v-120h-392v106l214 266h-201v120z" />
    <glyph glyph-name="braceleft" unicode="{" horiz-adv-x="412" 
d="M28 413q77 14 77 89v131q0 66 39.5 106.5t110.5 40.5q26 0 56.5 -2.5t48.5 -5.5l18 -2v-89l-76 -13q-42 -7 -53 -33t-11 -90v-76q0 -46 -22.5 -72t-76.5 -47q54 -21 76.5 -47t22.5 -72v-76q0 -64 11 -90t53 -33l76 -13v-89q-65 -10 -123 -10q-71 0 -110.5 40.5
t-39.5 106.5v131q0 75 -77 89v126z" />
    <glyph glyph-name="bar" unicode="|" horiz-adv-x="242" 
d="M55 730h132v-760h-132v760z" />
    <glyph glyph-name="braceright" unicode="}" horiz-adv-x="412" 
d="M384 287q-77 -14 -77 -89v-131q0 -66 -39.5 -106.5t-110.5 -40.5q-26 0 -56.5 2.5t-48.5 5.5l-18 2v89l76 13q42 7 53 33t11 90v76q0 46 22.5 72t76.5 47q-54 21 -76.5 47t-22.5 72v76q0 64 -11 90t-53 33l-76 13v89q65 10 123 10q71 0 110.5 -40.5t39.5 -106.5v-131
q0 -75 77 -89v-126z" />
    <glyph glyph-name="asciitilde" unicode="~" horiz-adv-x="574" 
d="M539 377q-78 -119 -165 -119q-39 0 -87.5 22t-83.5 22q-32 0 -56.5 -12t-56.5 -40l-55 54q78 119 165 119q39 0 87.5 -22t83.5 -22q32 0 56.5 12t56.5 40z" />
    <glyph glyph-name="exclamdown" unicode="&#xa1;" horiz-adv-x="252" 
d="M50 340v152h152v-152h-152zM50 -125l30 393h92l30 -393v-83h-152v83z" />
    <glyph glyph-name="cent" unicode="&#xa2;" horiz-adv-x="505" 
d="M218 98q-81 15 -132.5 83t-51.5 169q0 100 51.5 168.5t132.5 83.5v128h80v-127q70 -11 116 -60.5t61 -132.5h-134q-13 51 -43 67v-254q30 16 43 67h134q-15 -83 -61 -132.5t-116 -60.5v-127h-80v128zM174 350q0 -88 44 -122v243q-44 -32 -44 -121z" />
    <glyph glyph-name="sterling" unicode="&#xa3;" horiz-adv-x="568" 
d="M365 492q0 92 -63 92q-64 0 -64 -99v-66h157v-126h-157v-37q0 -84 -60 -130h347v-126h-489v86q60 51 60 150v57h-54v126h54v62q0 114 55 171.5t151 57.5q92 0 148.5 -56t56.5 -162h-142z" />
    <glyph glyph-name="currency" unicode="&#xa4;" horiz-adv-x="670" 
d="M135 226q-29 53 -29 120t29 120l-98 72l106 106l72 -98q54 30 120 30t120 -30l72 98l106 -106l-98 -72q29 -53 29 -120t-29 -120l98 -72l-106 -106l-72 98q-54 -30 -120 -30t-120 30l-72 -98l-106 106zM424 346q0 57 -25 83.5t-64 26.5t-64 -26.5t-25 -83.5t25 -83.5
t64 -26.5t64 26.5t25 83.5z" />
    <glyph glyph-name="yen" unicode="&#xa5;" horiz-adv-x="530" 
d="M59 220h135v54h-135v106h89l-138 320h148l107 -298l107 298h148l-138 -320h89v-106h-135v-54h135v-106h-135v-114h-142v114h-135v106z" />
    <glyph glyph-name="brokenbar" unicode="&#xa6;" horiz-adv-x="242" 
d="M55 402v328h132v-328h-132zM187 298v-328h-132v328h132z" />
    <glyph glyph-name="section" unicode="&#xa7;" horiz-adv-x="504" 
d="M35 262q0 67 58 112q-56 52 -56 137q0 92 60.5 145.5t143.5 53.5t142 -54.5t64 -154.5h-131q-12 83 -75 83q-31 0 -49.5 -18.5t-18.5 -51.5q0 -39 27 -59.5t106 -52.5q153 -62 153 -172q0 -68 -60 -114q50 -49 50 -135q0 -92 -60.5 -145.5t-143.5 -53.5t-142 54.5
t-64 154.5h131q12 -83 75 -83q31 0 49.5 18.5t18.5 51.5q0 40 -25 60.5t-100 51.5q-153 62 -153 172zM273 189q35 -13 60 -27q10 17 10 39q0 30 -28 54t-94 48q-30 10 -61 26q-9 -18 -9 -38q0 -30 28 -54t94 -48z" />
    <glyph glyph-name="paragraph" unicode="&#xb6;" horiz-adv-x="626" 
d="M228 700h371v-100h-47v-808h-112v808h-68v-808h-112v528h-32q-86 0 -138.5 50.5t-52.5 139.5t52.5 139.5t138.5 50.5z" />
    <glyph glyph-name="periodcentered" unicode="&#xb7;" 
d="M44 426h152v-152h-152v152z" />
    <glyph glyph-name="questiondown" unicode="&#xbf;" horiz-adv-x="460" 
d="M319 340h-152v152h152v-152zM425 -32q0 -76 -53.5 -131t-142.5 -55q-96 0 -150 49.5t-54 136.5q0 124 142 193l30 107h92l30 -156q-142 -27 -142 -144q0 -77 52 -77q27 0 41.5 23.5t14.5 53.5h140z" />
    <glyph glyph-name="multiply" unicode="&#xd7;" horiz-adv-x="484" 
d="M441 433l-110 -111l111 -111l-89 -89l-111 110l-111 -110l-89 89l111 111l-111 111l89 89l111 -110l111 110z" />
    <glyph glyph-name="germandbls" unicode="&#xdf;" horiz-adv-x="560" 
d="M234 0h-136v372h-70v120h70v21q0 99 58.5 148t141.5 49q81 0 137 -53t56 -144q0 -77 -40 -132q75 -61 75 -165q0 -98 -61.5 -157t-156.5 -59h-34v120h34q39 0 60.5 27.5t21.5 68.5q0 39 -20.5 67.5t-57.5 28.5h-38v120h22q59 0 59 75q0 35 -18 53.5t-41 18.5
q-25 0 -43.5 -20t-18.5 -59v-500z" />
    <glyph glyph-name="endash" unicode="&#x2013;" horiz-adv-x="532" 
d="M45 426h442v-126h-442v126z" />
    <glyph glyph-name="emdash" unicode="&#x2014;" horiz-adv-x="712" 
d="M45 426h622v-126h-622v126z" />
    <glyph glyph-name="quoteleft" unicode="&#x2018;" horiz-adv-x="228" 
d="M193 362h-152v132l72 206h54l-34 -186h60v-152z" />
    <glyph glyph-name="quoteright" unicode="&#x2019;" horiz-adv-x="228" 
d="M35 700h152v-132l-72 -206h-54l34 186h-60v152z" />
    <glyph glyph-name="quotesinglbase" unicode="&#x201a;" horiz-adv-x="228" 
d="M35 152h152v-132l-72 -206h-54l34 186h-60v152z" />
    <glyph glyph-name="quotedblleft" unicode="&#x201c;" horiz-adv-x="434" 
d="M193 362h-152v132l72 206h54l-34 -186h60v-152zM399 362h-152v132l72 206h54l-34 -186h60v-152z" />
    <glyph glyph-name="quotedblright" unicode="&#x201d;" horiz-adv-x="434" 
d="M35 700h152v-132l-72 -206h-54l34 186h-60v152zM241 700h152v-132l-72 -206h-54l34 186h-60v152z" />
    <glyph glyph-name="quotedblbase" unicode="&#x201e;" horiz-adv-x="434" 
d="M35 152h152v-132l-72 -206h-54l34 186h-60v152zM241 152h152v-132l-72 -206h-54l34 186h-60v152z" />
    <glyph glyph-name="bullet" unicode="&#x2022;" horiz-adv-x="284" 
d="M38 300q0 43 30.5 73.5t73.5 30.5t73.5 -30.5t30.5 -73.5t-30.5 -73.5t-73.5 -30.5t-73.5 30.5t-30.5 73.5z" />
    <glyph glyph-name="ellipsis" unicode="&#x2026;" horiz-adv-x="720" 
d="M44 152h152v-152h-152v152zM287 152h152v-152h-152v152zM530 152h152v-152h-152v152z" />
    <glyph glyph-name="perthousand" unicode="&#x2030;" horiz-adv-x="1128" 
d="M28 536q0 77 45.5 125.5t110.5 48.5t110.5 -48.5t45.5 -125.5t-45.5 -125.5t-110.5 -48.5t-110.5 48.5t-45.5 125.5zM520 700l97 -55l-366 -645l-97 55zM123 536q0 -45 17.5 -69.5t43.5 -24.5t43.5 24.5t17.5 69.5t-17.5 69.5t-43.5 24.5t-43.5 -24.5t-17.5 -69.5z
M430 164q0 77 45.5 125.5t110.5 48.5t110.5 -48.5t45.5 -125.5t-45.5 -125.5t-110.5 -48.5t-110.5 48.5t-45.5 125.5zM788 164q0 77 45.5 125.5t110.5 48.5t110.5 -48.5t45.5 -125.5t-45.5 -125.5t-110.5 -48.5t-110.5 48.5t-45.5 125.5zM525 164q0 -45 17.5 -69.5
t43.5 -24.5t43.5 24.5t17.5 69.5t-17.5 69.5t-43.5 24.5t-43.5 -24.5t-17.5 -69.5zM883 164q0 -45 17.5 -69.5t43.5 -24.5t43.5 24.5t17.5 69.5t-17.5 69.5t-43.5 24.5t-43.5 -24.5t-17.5 -69.5z" />
    <glyph glyph-name="guilsinglleft" unicode="&#x2039;" horiz-adv-x="338" 
d="M44 306l258 234v-164l-146 -103l146 -103v-164l-258 234v66z" />
    <glyph glyph-name="guilsinglright" unicode="&#x203a;" horiz-adv-x="338" 
d="M294 240l-258 -234v164l146 103l-146 103v164l258 -234v-66z" />
    <glyph glyph-name="minus" unicode="&#x2212;" horiz-adv-x="532" 
d="M45 426h442v-126h-442v126z" />
    <glyph glyph-name="uniF8FF" unicode="&#xf8ff;" horiz-adv-x="702" 
d="M647 22q0 -9 -6.5 -15.5t-15.5 -6.5q-3 0 -7 1l-267 77l-267 -77q-4 -1 -7 -1q-9 0 -15.5 6.5t-6.5 15.5v595q0 17 16 22l270 78q6 2 10 2t10 -2l270 -78q16 -5 16 -22v-595zM329 669l-230 -67q6 -94 71.5 -161t158.5 -75v303zM373 366q93 8 158.5 75t71.5 161l-230 67
v-303zM98 51l231 67v204q-73 6 -134 43.5t-97 97.5v-412zM604 463q-37 -60 -97.5 -97.5t-133.5 -43.5v-204l231 -67v412z" />
    <glyph glyph-name="fi" unicode="&#xfb01;" horiz-adv-x="596" 
d="M12 492h70v61q0 79 46 118t120 39q40 0 100 -15v-126q-33 10 -68 10q-62 0 -62 -70v-17h103v-120h-103v-372h-136v372h-70v120zM404 700h148v-136h-148v136zM410 492h136v-492h-136v492z" />
    <glyph glyph-name="fl" unicode="&#xfb02;" horiz-adv-x="589" 
d="M12 492h70v61q0 79 46 118t120 39q40 0 100 -15v-126q-33 10 -68 10q-62 0 -62 -70v-17h103v-120h-103v-372h-136v372h-70v120zM405 700h136v-700h-136v700z" />
    </font>
</defs>
</svg>
